SplineFontDB: 3.0
FontName: CommeMono
FullName: CommeMono
FamilyName: CommeMono
Weight: Regular
Copyright: Copyright (c) 2011-14 by vernon adams.
UComments: "metrics +AD0A 1901, -483" 
Version: 1.0
ItalicAngle: 0
UnderlinePosition: 0
UnderlineWidth: 0
Ascent: 1638
Descent: 410
UFOAscent: 1638
UFODescent: -410
LayerCount: 2
Layer: 0 0 "Back"  1
Layer: 1 0 "Fore"  0
FSType: 0
OS2Version: 0
OS2_WeightWidthSlopeOnly: 0
OS2_UseTypoMetrics: 1
CreationTime: 1395891303
ModificationTime: 1395894583
PfmFamily: 17
TTFWeight: 400
TTFWidth: 5
LineGap: 0
VLineGap: 0
OS2TypoAscent: 1901
OS2TypoAOffset: 0
OS2TypoDescent: -483
OS2TypoDOffset: 0
OS2TypoLinegap: 0
OS2WinAscent: 1901
OS2WinAOffset: 0
OS2WinDescent: 483
OS2WinDOffset: 0
HheadAscent: 1901
HheadAOffset: 0
HheadDescent: -483
HheadDOffset: 0
OS2Vendor: 'newt'
MarkAttachClasses: 1
DEI: 91125
LangName: 1033 "" "" "" "Comme Mono Regular" "" "Version 1.0" "" "Comme Mono is a trademark of vernon adams." "vernon adams" "vernon adams" "Copyright (c) 2011-14 by vernon adams. All rights reserved." "newtypography.co.uk" "newtypography.co.uk" "" "http://scripts.sil.org/OFL" "" "" "" "Comme Mono" 
PickledData: "(dp1
S'com.typemytype.robofont.foreground.layerStrokeColor'
p2
(F0.5
F0
F0.5
F0.69999999999999996
tp3
sS'com.typemytype.robofont.b.layerStrokeColor'
p4
(F0.5
F1
F0
F0.69999999999999996
tp5
sS'com.typemytype.robofont.layerOrder'
p6
(S'b'
tp7
sS'com.typemytype.robofont.segmentType'
p8
S'curve'
p9
sS'org.robofab.glyphOrder'
p10
(S'A'
S'Aacute'
p11
S'Abreve'
p12
S'Acircumflex'
p13
S'Adieresis'
p14
S'Agrave'
p15
S'Amacron'
p16
S'Aogonek'
p17
S'Aring'
p18
S'Atilde'
p19
S'AE'
p20
S'B'
S'C'
S'Cacute'
p21
S'Ccaron'
p22
S'Ccedilla'
p23
S'Ccircumflex'
p24
S'Cdotaccent'
p25
S'D'
S'Eth'
p26
S'Dcaron'
p27
S'Dcroat'
p28
S'E'
S'Eacute'
p29
S'Ecaron'
p30
S'Ecircumflex'
p31
S'Edieresis'
p32
S'Edotaccent'
p33
S'Egrave'
p34
S'Emacron'
p35
S'Eogonek'
p36
S'F'
S'G'
S'Gbreve'
p37
S'Gcircumflex'
p38
S'Gcommaaccent'
p39
S'Gdotaccent'
p40
S'H'
S'Hbar'

StartChar: A
Encoding: 34 65 0
Width: 1229
VWidth: 0
Flags: HW
PickledData: "(dp1
S'com.typemytype.robofont.layerData'
p2
(dp3
s."
AnchorPoint: "ogonek" 1106 10 basechar 0
AnchorPoint: "top" 615 1491 basechar 0
LayerCount: 2
Fore
SplineSet
451 624 m 257
 777 624 l 257
 617 1302 l 257
 451 624 l 257
720 1491 m 257
 1147 0 l 257
 956 0 l 257
 815 493 l 257
 412 493 l 257
 272 0 l 257
 82 0 l 257
 508 1491 l 257
 720 1491 l 257
EndSplineSet
EndChar

StartChar: AE
Encoding: 134 198 1
Width: 1229
VWidth: 0
Flags: HW
AnchorPoint: "top" 615 1491 basechar 0
LayerCount: 2
Fore
SplineSet
692 591 m 257
 692 1360 l 257
 441 591 l 257
 692 591 l 257
612 1572 m 257
 1165 1572 l 257
 1153 1411 l 257
 871 1411 l 257
 871 881 l 257
 1179 881 l 257
 1166 721 l 257
 871 721 l 257
 871 151 l 257
 1194 151 l 257
 1182 0 l 257
 692 0 l 257
 692 431 l 257
 380 431 l 257
 235 0 l 257
 27 0 l 257
 612 1572 l 257
EndSplineSet
EndChar

StartChar: B
Encoding: 35 66 11
Width: 1229
VWidth: 0
Flags: HW
PickledData: "(dp1
S'com.typemytype.robofont.layerData'
p2
(dp3
s."
LayerCount: 2
Fore
SplineSet
492 889 m 258
 679 889 840 930 840 1103 c 256
 840 1337 733 1357 433 1358 c 257
 345 1358 l 257
 345 889 l 257
 492 889 l 258
537 737 m 258
 345 737 l 257
 345 159 l 257
 518 159 l 258
 790 159 916 221 916 455 c 256
 916 674 767 737 537 737 c 258
1113 446 m 256
 1113 118 858 13 517 13 c 258
 158 13 l 257
 158 1504 l 257
 464 1504 l 258
 775 1504 1036 1449 1036 1138 c 256
 1036 957 920 864 769 823 c 257
 962 795 1113 648 1113 446 c 256
EndSplineSet
EndChar

StartChar: C
Encoding: 36 67 12
Width: 1229
VWidth: 0
Flags: HW
PickledData: "(dp1
S'com.typemytype.robofont.layerData'
p2
(dp3
s."
AnchorPoint: "bottom" 704 1 basechar 0
AnchorPoint: "top" 719 1491 basechar 0
LayerCount: 2
Fore
SplineSet
1092 1371 m 257
 992 1260 l 257
 923 1319 847 1363 728 1363 c 256
 463 1363 323 1074 323 748 c 256
 323 406 467 130 718 130 c 256
 838 130 923 175 993 238 c 257
 1092 121 l 257
 1000 32 874 -25 704 -25 c 256
 366 -25 127 303 127 750 c 256
 127 1217 380 1516 720 1516 c 256
 870 1516 990 1477 1092 1371 c 257
EndSplineSet
EndChar

StartChar: D
Encoding: 37 68 18
Width: 1229
VWidth: 0
Flags: HW
PickledData: "(dp1
S'com.typemytype.robofont.layerData'
p2
(dp3
S'b'
(dp4
S'name'
p5
S'D'
sS'lib'
p6
(dp7
sS'unicodes'
p8
(tsS'width'
p9
I1229
sS'contours'
p10
(tsS'components'
p11
(tsS'anchors'
p12
(tsss."
AnchorPoint: "center" 630 746 basechar 0
AnchorPoint: "top" 630 1491 basechar 0
LayerCount: 2
Fore
SplineSet
375 146 m 258
 797 146 911 346 911 725 c 256
 911 1103 806 1345 377 1345 c 258
 358 1345 l 257
 358 146 l 257
 375 146 l 258
171 1491 m 257
 392 1491 l 258
 873 1491 1107 1196 1107 724 c 256
 1107 245 879 0 379 0 c 258
 171 0 l 257
 171 1491 l 257
EndSplineSet
EndChar

StartChar: E
Encoding: 38 69 21
Width: 1229
VWidth: 0
Flags: HW
PickledData: "(dp1
S'com.typemytype.robofont.layerData'
p2
(dp3
s."
AnchorPoint: "ogonek" 979 1 basechar 0
AnchorPoint: "bottom" 623 0 basechar 0
AnchorPoint: "top" 623 1491 basechar 0
LayerCount: 2
Fore
SplineSet
412 684 m 257
 412 146 l 257
 1089 146 l 257
 1074 0 l 257
 225 0 l 257
 225 1491 l 257
 1056 1491 l 257
 1040 1345 l 257
 412 1345 l 257
 412 843 l 257
 1007 843 l 257
 1007 684 l 257
 412 684 l 257
EndSplineSet
EndChar

StartChar: Eng
Encoding: 263 330 29
Width: 1229
VWidth: 0
Flags: HW
LayerCount: 2
Fore
SplineSet
715 1518 m 256
 947.487 1519 1099 1364 1099 1009 c 258
 1099 13 l 258
 1099 -300 999 -458 682 -458 c 256
 579 -458 345 -430 345 -430 c 257
 334 -268 l 257
 334 -268 591.789 -299 706 -299 c 256
 842.169 -299 912 -209 912 -39 c 258
 912 1003 l 258
 912 1240 862.953 1363 660 1363 c 256
 462.921 1363 316 1250.96 316 1011.3 c 258
 316 2 l 257
 129 2 l 257
 129 1491 l 257
 303 1491 l 257
 316 1341.68 l 257
 415.741 1461.33 547.464 1517.31 715 1518 c 256
EndSplineSet
EndChar

StartChar: Eth
Encoding: 144 208 31
Width: 1229
VWidth: 0
Flags: HW
LayerCount: 2
Fore
SplineSet
633 714 m 257
 0 714 l 257
 0 863 l 257
 633 863 l 257
 633 714 l 257
EndSplineSet
Refer: 18 68 N 1 0 0 1 0 0 2
EndChar

StartChar: Euro
Encoding: 344 8364 32
Width: 1229
VWidth: 0
Flags: HW
LayerCount: 2
Fore
SplineSet
235 710 m 257
 233 736 232 764 232 792 c 256
 232 812 233 832 234 851 c 257
 96 851 l 257
 122 1001 l 257
 255 1001 l 257
 316 1323 526 1572 864 1572 c 256
 1021 1572 1151 1526 1237 1444 c 257
 1198 1239 l 257
 1130 1336 1028 1415 872 1415 c 256
 614 1415 496 1213 450 1001 c 257
 1106 1001 l 257
 1082 851 l 257
 430 851 l 257
 427 807 l 257
 427 773 428 741 431 710 c 257
 1067 710 l 257
 1046 560 l 257
 446 560 l 257
 479 320 590 136 863 136 c 256
 1010 136 1125 206 1213 275 c 257
 1212 81 l 257
 1116 17 994 -22 845 -22 c 256
 467 -22 295 228 249 560 c 257
 100 560 l 257
 122 710 l 257
 235 710 l 257
EndSplineSet
EndChar

StartChar: F
Encoding: 39 70 33
Width: 1229
VWidth: 0
Flags: HW
LayerCount: 2
Fore
SplineSet
431 683 m 257
 431 0 l 257
 244 0 l 257
 244 1491 l 257
 1078 1491 l 257
 1060 1345 l 257
 431 1345 l 257
 431 846 l 257
 1034 846 l 257
 1034 683 l 257
 431 683 l 257
EndSplineSet
EndChar

StartChar: G
Encoding: 40 71 34
Width: 1229
VWidth: 0
Flags: HW
PickledData: "(dp1
S'com.typemytype.robofont.layerData'
p2
(dp3
s."
AnchorPoint: "bottom" 610 0 basechar 0
AnchorPoint: "top" 610 1491 basechar 0
LayerCount: 2
Fore
SplineSet
989 1255 m 257
 915 1325 841 1363 716 1363 c 256
 445 1362 298 1061 298 748 c 256
 298 422 410 130 687 130 c 256
 805 130 854 155 929 200 c 257
 929 625 l 257
 639 625 l 257
 639 778 l 257
 1102 778 l 257
 1102 120 l 257
 977 40 869 -25 669 -25 c 256
 278 -25 102 328 102 750 c 256
 102 1213 370 1515 703 1515 c 256
 865 1515 958 1473 1053 1388 c 257
 1036 1348 989 1255 989 1255 c 257
EndSplineSet
EndChar

StartChar: H
Encoding: 41 72 39
Width: 1229
VWidth: 0
Flags: HW
AnchorPoint: "center" 615 746 basechar 0
AnchorPoint: "top" 615 1491 basechar 0
LayerCount: 2
Fore
SplineSet
327 0 m 257
 140 0 l 257
 140 1491 l 257
 327 1491 l 257
 327 855 l 257
 902 855 l 257
 902 1491 l 257
 1089 1491 l 257
 1089 0 l 257
 902 0 l 257
 902 702 l 257
 327 702 l 257
 327 0 l 257
EndSplineSet
EndChar

StartChar: Hbar
Encoding: 228 294 40
Width: 1229
VWidth: 0
Flags: HW
LayerCount: 2
Fore
SplineSet
11 1194 m 257
 11 1320 l 257
 1216 1320 l 257
 1216 1194 l 257
 11 1194 l 257
EndSplineSet
Refer: 39 72 N 1 0 0 1 0 0 2
EndChar

StartChar: I
Encoding: 42 73 42
Width: 1229
VWidth: 0
Flags: HW
AnchorPoint: "ogonek" 668 0 basechar 0
AnchorPoint: "top" 615 1491 basechar 0
LayerCount: 2
Fore
SplineSet
194 1345 m 257
 194 1491 l 257
 1035 1491 l 257
 1035 1345 l 257
 704 1345 l 257
 704 146 l 257
 1035 146 l 257
 1035 0 l 257
 194 0 l 257
 194 146 l 257
 517 146 l 257
 517 1345 l 257
 194 1345 l 257
EndSplineSet
EndChar

StartChar: IJ
Encoding: 240 306 43
Width: 1229
VWidth: 0
Flags: HW
LayerCount: 2
Fore
SplineSet
55 1345 m 257
 55 1491 l 257
 576 1491 l 257
 576 1345 l 257
 405 1345 l 257
 405 146 l 257
 576 146 l 257
 576 0 l 257
 55 0 l 257
 55 146 l 257
 218 146 l 257
 218 1345 l 257
 55 1345 l 257
660 0 m 257
 659 145 l 257
 720.638 135.568 779.721 120.8 830.341 120.8 c 256
 922.783 120.8 987 170.052 987 391 c 258
 987 1345 l 257
 679 1345 l 257
 679 1491 l 257
 1174 1491 l 257
 1174 443 l 258
 1174 71.9229 1061.6 -15.3623 851.928 -15.3623 c 256
 795.017 -15.3623 730.94 -8.93164 660 0 c 257
EndSplineSet
EndChar

StartChar: J
Encoding: 43 74 53
Width: 1229
VWidth: 0
Flags: HW
PickledData: "(dp1
S'com.typemytype.robofont.layerData'
p2
(dp3
s."
AnchorPoint: "top" 626 1491 basechar 0
LayerCount: 2
Fore
SplineSet
181 0 m 257
 180 151 l 257
 270 143 371 126 463 126 c 256
 619 126 748 174 748 391 c 258
 748 1345 l 257
 320 1345 l 257
 320 1491 l 257
 935 1491 l 257
 935 443 l 258
 935 63 748 -16 466 -16 c 256
 379 -16 283 -8 181 0 c 257
EndSplineSet
EndChar

StartChar: K
Encoding: 44 75 55
Width: 1229
VWidth: 0
Flags: HW
AnchorPoint: "bottom" 615 0 basechar 0
AnchorPoint: "top" 615 1491 basechar 0
LayerCount: 2
Fore
SplineSet
927 1491 m 257
 1160 1491 l 257
 661 823 l 257
 1193 0 l 257
 955 0 l 257
 517 700 l 257
 398 561 l 257
 398 0 l 257
 211 0 l 257
 211 1491 l 257
 398 1491 l 257
 398 773 l 257
 927 1491 l 257
EndSplineSet
EndChar

StartChar: L
Encoding: 45 76 57
Width: 1229
VWidth: 0
Flags: HW
AnchorPoint: "bottom" 615 0 basechar 0
AnchorPoint: "top" 615 1491 basechar 0
LayerCount: 2
Fore
SplineSet
490 146 m 257
 1066 146 l 257
 1056 0 l 257
 303 0 l 257
 303 1491 l 257
 490 1491 l 257
 490 146 l 257
EndSplineSet
EndChar

StartChar: Lslash
Encoding: 255 321 62
Width: 1229
VWidth: 0
Flags: HW
LayerCount: 2
Fore
SplineSet
420 163 m 257
 1129 163 l 257
 1129 0 l 257
 233 0 l 257
 233 639.425 l 257
 76 559 l 257
 76 708 l 257
 233 788.425 l 257
 233 1491 l 257
 420 1491 l 257
 420 879.756 l 257
 614 978 l 257
 614 829 l 257
 420 730.756 l 257
 420 163 l 257
EndSplineSet
EndChar

StartChar: M
Encoding: 46 77 63
Width: 1229
VWidth: 0
Flags: HW
PickledData: "(dp1
S'com.typemytype.robofont.layerData'
p2
(dp3
s."
LayerCount: 2
Fore
SplineSet
336 1280 m 257
 336 0 l 257
 150 0 l 257
 150 1491 l 257
 405 1491 l 257
 618 792 l 257
 831 1491 l 257
 1080 1491 l 257
 1080 0 l 257
 899 0 l 257
 899 1280 l 257
 722 636 l 257
 513 636 l 257
 336 1280 l 257
EndSplineSet
EndChar

StartChar: N
Encoding: 47 78 64
Width: 1229
VWidth: 0
Flags: HW
AnchorPoint: "bottom" 615 0 basechar 0
AnchorPoint: "top" 615 1491 basechar 0
LayerCount: 2
Fore
SplineSet
1078 0 m 257
 858 0 l 257
 320 1206 l 257
 320 0 l 257
 150 0 l 257
 150 1491 l 257
 365 1491 l 257
 911 289 l 257
 911 1491 l 257
 1078 1491 l 257
 1078 0 l 257
EndSplineSet
EndChar

StartChar: O
Encoding: 48 79 69
Width: 1229
VWidth: 0
Flags: HW
AnchorPoint: "top" 615 1491 basechar 0
LayerCount: 2
Fore
SplineSet
614 1363 m 256
 417 1363 319 1091 319 746 c 256
 319 401 418 130 614 130 c 256
 810 130 909 401 909 746 c 256
 909 1091 811 1363 614 1363 c 256
614 -25 m 256
 275 -25 123 337 123 747 c 256
 123 1124 242 1516 614 1516 c 256
 986 1516 1105 1124 1105 747 c 256
 1105 337 953 -25 614 -25 c 256
EndSplineSet
EndChar

StartChar: OE
Encoding: 271 338 70
Width: 1229
VWidth: 0
Flags: HW
AnchorPoint: "top" 615 1491 basechar 0
LayerCount: 2
Fore
SplineSet
243 791 m 256
 243 491 303 160 539 160 c 258
 583 160 l 257
 583 1389 l 257
 539 1389 l 258
 283 1389 243 1056 243 791 c 256
806 717 m 257
 806 171 l 257
 1133 171 l 257
 1116 0 l 257
 539 0 l 258
 147 0 20 393 20 789 c 256
 20 1210 180 1568 539 1568 c 258
 1097 1568 l 257
 1081 1397 l 257
 806 1397 l 257
 806 889 l 257
 1047 889 l 257
 1047 717 l 257
 806 717 l 257
EndSplineSet
EndChar

StartChar: Oslash
Encoding: 152 216 78
Width: 1229
VWidth: 0
Flags: HW
AnchorPoint: "top" 615 1491 basechar 0
LayerCount: 2
Fore
SplineSet
614 1356 m 256
 417 1356 319 1091 319 746 c 256
 319 597.778 337.273 464.323 373.662 360.305 c 257
 769.544 1284.19 l 257
 727.318 1330.19 675.48 1356 614 1356 c 256
281 -222 m 257
 146 -171 l 257
 281.604 145.465 l 257
 173.625 289.752 123 510.383 123 747 c 256
 123 1124 242 1516 614 1516 c 256
 704.142 1516 779.428 1492.98 841.765 1452.74 c 257
 955 1717 l 257
 1095 1675 l 257
 953.698 1345.7 l 257
 1063.7 1196.41 1105 969.1 1105 747 c 256
 1105 337 953 -25 614 -25 c 256
 528.639 -25 455.134 -2.04754 392.928 38.8442 c 257
 281 -222 l 257
463.382 203.034 m 257
 504.756 160.029 554.98 136 614 136 c 256
 810 136 909 401 909 746 c 256
 909 889.806 891.973 1019.71 857.846 1122.32 c 257
 463.382 203.034 l 257
EndSplineSet
EndChar

StartChar: P
Encoding: 49 80 80
Width: 1229
VWidth: 0
Flags: HW
PickledData: "(dp1
S'com.typemytype.robofont.layerData'
p2
(dp3
s."
LayerCount: 2
Fore
SplineSet
397 765 m 257
 616 765 l 258
 799 765 929 861 929 1053 c 256
 929 1259 797 1345 616 1345 c 258
 397 1345 l 257
 397 765 l 257
1110 1062 m 256
 1110 703 867 616 551 616 c 258
 397 616 l 257
 397 0 l 257
 210 0 l 257
 210 1491 l 257
 552 1491 l 258
 861 1491 1110 1386 1110 1062 c 256
EndSplineSet
EndChar

StartChar: Q
Encoding: 50 81 81
Width: 1229
VWidth: 0
Flags: HW
LayerCount: 2
Fore
SplineSet
575 1363 m 256
 378 1363 280 1091 280 746 c 256
 280 401 379 130 575 130 c 256
 771 130 870 401 870 746 c 256
 870 1091 772 1363 575 1363 c 256
575 -25 m 256
 236 -25 84 337 84 747 c 256
 84 1124 203 1516 575 1516 c 256
 947 1516 1066 1124 1066 747 c 256
 1066 423.039 971.101 129.047 764.038 19.9235 c 257
 832.036 -117.043 930.021 -232.018 1040 -330 c 257
 916 -458 l 257
 787.488 -333.443 672.658 -191.295 588.898 -24.7949 c 257
 584.301 -24.9314 579.668 -25 575 -25 c 256
EndSplineSet
EndChar

StartChar: R
Encoding: 51 82 82
Width: 1229
VWidth: 0
Flags: HW
PickledData: "(dp1
S'com.typemytype.robofont.layerData'
p2
(dp3
s."
AnchorPoint: "bottom" 615 0 basechar 0
AnchorPoint: "top" 615 1491 basechar 0
LayerCount: 2
Fore
SplineSet
567 824 m 258
 373 824 l 257
 373 1345 l 257
 563 1345 l 258
 770 1345 928 1286 928 1098 c 256
 928 888 778 824 567 824 c 258
1115 1093 m 256
 1115 1439 833 1491 488 1491 c 258
 186 1491 l 257
 186 0 l 257
 373 0 l 257
 373 662 l 257
 460 662 l 258
 514 662 655 665 655 665 c 257
 972 0 l 257
 1177 0 l 257
 838 712 l 257
 996 767 1115 873 1115 1093 c 256
EndSplineSet
EndChar

StartChar: S
Encoding: 52 83 86
Width: 1229
VWidth: 0
Flags: HW
PickledData: "(dp1
S'com.typemytype.robofont.layerData'
p2
(dp3
s."
AnchorPoint: "bottom" 634 0 basechar 0
AnchorPoint: "top" 634 1491 basechar 0
LayerCount: 2
Fore
SplineSet
250 249 m 257
 332 195 443 130 599 130 c 256
 761 130 862 233 862 399 c 256
 862 600 694 638 515 718 c 256
 343 795 169 879 169 1123 c 256
 169 1380 373 1517 630 1517 c 256
 797 1517 927 1471 1022 1396 c 257
 932 1274 l 257
 865 1326 747 1369 633 1363 c 256
 476 1355 376 1279 376 1128 c 256
 376 961 544 921 725 833 c 256
 894 751 1073 658 1073 415 c 256
 1073 122 889 -25 608 -25 c 256
 427 -25 269 35 152 113 c 257
 250 249 l 257
EndSplineSet
EndChar

StartChar: T
Encoding: 53 84 92
Width: 1229
VWidth: 0
Flags: HW
AnchorPoint: "center" 615 746 basechar 0
AnchorPoint: "bottom" 615 0 basechar 0
AnchorPoint: "top" 615 1491 basechar 0
LayerCount: 2
Fore
SplineSet
1129 1491 m 257
 1129 1345 l 257
 705 1345 l 257
 705 0 l 257
 518 0 l 257
 518 1345 l 257
 94 1345 l 257
 94 1491 l 257
 1129 1491 l 257
EndSplineSet
EndChar

StartChar: Tbar
Encoding: 289 358 93
Width: 1229
VWidth: 0
Flags: HW
LayerCount: 2
Fore
SplineSet
275 561 m 257
 275 701 l 257
 518 701 l 257
 518 1345 l 257
 94 1345 l 257
 94 1491 l 257
 1129 1491 l 257
 1129 1345 l 257
 705 1345 l 257
 705 701 l 257
 954 701 l 257
 954 561 l 257
 705 561 l 257
 705 0 l 257
 518 0 l 257
 518 561 l 257
 275 561 l 257
EndSplineSet
EndChar

StartChar: Thorn
Encoding: 158 222 96
Width: 1229
VWidth: 0
Flags: HW
LayerCount: 2
Fore
SplineSet
545 523 m 258
 782 523 915 599 915 836 c 256
 915 1096 751 1144 493 1144 c 258
 366 1144 l 257
 366 523 l 257
 545 523 l 258
1119 831 m 256
 1119 384 754 361 366 361 c 257
 366 0 l 257
 176 0 l 257
 176 1581 l 257
 366 1581 l 257
 366 1304 l 257
 772 1304 1119 1298 1119 831 c 256
EndSplineSet
EndChar

StartChar: U
Encoding: 54 85 97
Width: 1229
VWidth: 0
Flags: HW
AnchorPoint: "ogonek" 651 2 basechar 0
AnchorPoint: "top" 635 1491 basechar 0
LayerCount: 2
Fore
SplineSet
614 -25 m 256
 271 -25 129 129 129 484 c 258
 129 1491 l 257
 316 1491 l 257
 316 490 l 258
 316 253 374 130 614 130 c 256
 854 130 912 253 912 490 c 258
 912 1491 l 257
 1099 1491 l 257
 1099 484 l 258
 1099 129 957 -25 614 -25 c 256
EndSplineSet
EndChar

StartChar: V
Encoding: 55 86 108
Width: 1229
VWidth: 0
Flags: HW
LayerCount: 2
Fore
SplineSet
967 1491 m 257
 1172 1491 l 257
 722 0 l 257
 505 0 l 257
 57 1491 l 257
 262 1491 l 257
 617 223 l 257
 967 1491 l 257
EndSplineSet
EndChar

StartChar: W
Encoding: 56 87 109
Width: 1229
VWidth: 0
Flags: HW
PickledData: "(dp1
S'com.typemytype.robofont.layerData'
p2
(dp3
S'b'
(dp4
S'name'
p5
S'W'
sS'lib'
p6
(dp7
sS'unicodes'
p8
(tsS'width'
p9
I1230
sS'contours'
p10
((dp11
S'points'
p12
((dp13
S'segmentType'
p14
S'line'
p15
sS'x'
F906
sS'smooth'
p16
I00
sS'y'
F210
s(dp17
g14
S'line'
p18
sS'x'
F972
sg16
I00
sS'y'
F1491
s(dp19
g14
S'line'
p20
sS'x'
F1157
sg16
I00
sS'y'
F1491
s(dp21
g14
S'line'
p22
sS'x'
F1040
sg16
I00
sS'y'
F0
s(dp23
g14
S'line'
p24
sS'x'
F811
sg16
I00
sS'y'
F0
s(dp25
g14
S'line'
p26
sS'x'
F627
sg16
I00
sS'y'
F659
s(dp27
g14
S'line'
p28
sS'x'
F431
sg16
I00
sS'y'
F0
s(dp29
g14
S'line'
p30
sS'x'
F205
sg16
I00
sS'y'
F0
s(dp31
g14
S'line'
p32
sS'x'
F67
sg16
I00
sS'y'
F1491
s(dp33
g14
S'line'
p34
sS'x'
F252
sg16
I00
sS'y'
F1491
s(dp35
g14
S'line'
p36
sS'x'
F356
sg16
I00
sS'y'
F213
s(dp37
g14
S'line'
p38
sS'x'
F543
sg16
I00
sS'y'
F880
s(dp39
g14
S'line'
p40
sS'x'
F716
sg16
I00
sS'y'
F880
stp41
stp42
sS'components'
p43
(tsS'anchors'
p44
(tsss."
AnchorPoint: "top" 614 1492 basechar 0
LayerCount: 2
Fore
SplineSet
869 191 m 257
 965 1491 l 257
 1140 1491 l 257
 1004 0 l 257
 789 0 l 257
 616 699 l 257
 432 0 l 257
 223 0 l 257
 90 1491 l 257
 265 1491 l 257
 358 191 l 257
 512 845 l 257
 721 845 l 257
 869 191 l 257
EndSplineSet
EndChar

StartChar: X
Encoding: 57 88 111
Width: 1229
VWidth: 0
Flags: HW
PickledData: "(dp1
S'com.typemytype.robofont.layerData'
p2
(dp3
s."
LayerCount: 2
Fore
SplineSet
118 1491 m 257
 340 1491 l 257
 629 892 l 257
 941 1491 l 257
 1138 1491 l 257
 749 763 l 257
 1146 0 l 257
 933 0 l 257
 613 627 l 257
 286 0 l 257
 78 0 l 257
 496 762 l 257
 118 1491 l 257
EndSplineSet
EndChar

StartChar: Y
Encoding: 58 89 112
Width: 1229
VWidth: 0
Flags: HW
AnchorPoint: "top" 615 1491 basechar 0
LayerCount: 2
Fore
SplineSet
702 0 m 257
 515 0 l 257
 515 593 l 257
 69 1491 l 257
 275 1491 l 257
 610 774 l 257
 949 1491 l 257
 1160 1491 l 257
 702 593 l 257
 702 0 l 257
EndSplineSet
EndChar

StartChar: Z
Encoding: 59 90 116
Width: 1229
VWidth: 0
Flags: HW
AnchorPoint: "top" 615 1491 basechar 0
LayerCount: 2
Fore
SplineSet
397 146 m 257
 1049 146 l 257
 1049 0 l 257
 156 0 l 257
 156 143 l 257
 803 1345 l 257
 191 1345 l 257
 191 1491 l 257
 1058 1491 l 257
 1058 1364 l 257
 397 146 l 257
EndSplineSet
EndChar

StartChar: a
Encoding: 66 97 120
Width: 1229
VWidth: 0
Flags: HW
PickledData: "(dp1
S'com.typemytype.robofont.layerData'
p2
(dp3
s."
AnchorPoint: "ogonek" 1100 10 basechar 0
AnchorPoint: "top" 617 1097 basechar 0
LayerCount: 2
Fore
SplineSet
847 245 m 257
 847 525 l 257
 700 504 l 258
 546 482 356 460 356 289 c 256
 356 179 423 108 533 108 c 256
 655 108 766 161 847 245 c 257
499 -25 m 256
 320 -25 181 93 181 280 c 256
 181 552 419 589 703 623 c 258
 847 640 l 257
 847 756 l 258
 847 923 781 991 633 991 c 256
 528 991 346 946 290 921 c 257
 248 1061 l 257
 345 1094 471 1130 630 1130 c 256
 854 1130 1026 1034 1026 791 c 258
 1026 0 l 257
 878 0 l 257
 854 127 l 257
 772 43 628 -25 499 -25 c 256
EndSplineSet
EndChar

StartChar: acute
Encoding: 116 180 124
Width: 1229
VWidth: 0
Flags: HW
AnchorPoint: "top" 475.5 1097 mark 0
LayerCount: 2
Fore
SplineSet
418 1268 m 257
 679 1705 l 257
 911 1705 l 257
 560 1268 l 257
 418 1268 l 257
EndSplineSet
EndChar

StartChar: ae
Encoding: 166 230 126
Width: 1229
VWidth: 0
Flags: HW
AnchorPoint: "top" 615 1097 basechar 0
LayerCount: 2
Fore
SplineSet
1026 653 m 257
 1017 821 983 977 880 977 c 256
 769 977 718 824 709 653 c 257
 1026 653 l 257
352 122 m 256
 452 122 518 169 593 210 c 257
 567 280 551 362 543 452 c 257
 499 452 l 258
 387 452 232 445 232 297 c 256
 232 194 267 122 352 122 c 256
1148 98 m 257
 1077 22 992 -25 865 -25 c 256
 777 -25 706 19 653 94 c 257
 557 38 468 -25 343 -25 c 256
 193 -25 55 92 55 280 c 256
 55 562 272 594 522 594 c 258
 537 594 l 257
 537 786 l 258
 537 912 483 969 369 969 c 256
 286 969 205 945 145 894 c 257
 101 1053 l 257
 177 1105 278 1130 378 1130 c 256
 497 1130 595 1088 644 988 c 257
 704 1079 786 1130 880 1130 c 256
 1070 1130 1170 880 1170 581 c 257
 1168 520 l 257
 703 520 l 257
 711 302 765 122 878 122 c 256
 963 122 1022 171 1068 222 c 257
 1148 98 l 257
EndSplineSet
EndChar

StartChar: afii00208
Encoding: 329 8213 127
Width: 1229
VWidth: 0
Flags: HW
LayerCount: 2
Fore
SplineSet
323 672 m 257
 323 827 l 257
 3860 827 l 257
 3860 672 l 257
 323 672 l 257
EndSplineSet
EndChar

StartChar: ampersand
Encoding: 7 38 130
Width: 1229
VWidth: 0
Flags: HW
LayerCount: 2
Fore
SplineSet
689 1260 m 256
 689 1369 622 1444 530 1444 c 256
 428 1444 349 1379 349 1289 c 256
 349 1203 400 1089 494 961 c 257
 603 1022 689 1102 689 1260 c 256
554 143 m 256
 666 143 739 194 804 259 c 257
 449 746 l 257
 358 677 277 571 277 419 c 256
 277 243 381 143 554 143 c 256
346 881 m 257
 346 881 152 1099 152 1275 c 256
 152 1488 318 1594 515 1594 c 256
 719 1594 891 1486 891 1270 c 256
 891 1048 725 922 574 838 c 257
 913 374 l 257
 966 437 1024 583 1039 627 c 257
 1198 569 l 257
 1164 489 1077 301 1015 236 c 257
 1138 76 l 257
 1008 -24 l 257
 905 121 l 257
 819 39 680 -25 531 -25 c 256
 251 -25 68 129 68 413 c 256
 68 641 200 784 346 881 c 257
EndSplineSet
EndChar

StartChar: approxequal
Encoding: 354 8776 132
Width: 1229
VWidth: 0
Flags: HW
LayerCount: 2
Fore
SplineSet
481 867 m 256
 362 867 312 780 284 688 c 257
 247 695 179 717 154 717 c 258
 152 717 l 257
 189 878 290 996 487 996 c 256
 663 996 773 879 909 830 c 256
 934 821 958 817 982 817 c 256
 1101 817 1145 908 1176 997 c 257
 1299 966 l 257
 1262 806 1174 688 978 688 c 256
 793 688 693 803 555 854 c 256
 531 863 505 867 481 867 c 256
998 413 m 256
 1103 413 1150 515 1180 592 c 257
 1303 563 l 257
 1266 404 1178 284 983 284 c 256
 774 284 632 463 484 463 c 256
 366 463 312 375 284 283 c 257
 158 314 l 257
 198 475 293 592 493 592 c 256
 681 592 784 478 924 427 c 256
 949 418 974 413 998 413 c 256
EndSplineSet
EndChar

StartChar: asciicircum
Encoding: 63 94 134
Width: 1229
VWidth: 0
Flags: HW
LayerCount: 2
Fore
SplineSet
644 1554 m 257
 757 1554 l 257
 1296 597 l 257
 1125 597 l 257
 698 1368 l 257
 284 597 l 257
 111 597 l 257
 644 1554 l 257
EndSplineSet
EndChar

StartChar: asciitilde
Encoding: 95 126 135
Width: 1229
VWidth: 0
Flags: HW
LayerCount: 2
Fore
SplineSet
1332 1108 m 257
 1297 946 1261 781 1064 781 c 256
 981 781 891 822 815 850 c 256
 712 888 592 936 483 969 c 256
 474 972 465 974 455 974 c 256
 371 974 345 860 334 784 c 257
 152 844 l 257
 180 985 254 1150 420 1150 c 256
 519 1150 616 1108 698 1075 c 256
 794 1036 903 989 1008 963 c 256
 1015 961 1023 959 1031 959 c 256
 1116 959 1134 1077 1148 1150 c 257
 1332 1108 l 257
EndSplineSet
EndChar

StartChar: asterisk
Encoding: 11 42 136
Width: 1229
VWidth: 0
Flags: HW
LayerCount: 2
Fore
SplineSet
1046 374 m 257
 866 270 l 257
 612 673 l 257
 363 270 l 257
 181 374 l 257
 499 752 l 257
 56 899 l 257
 148 1079 l 257
 550 866 l 257
 515 1330 l 257
 711 1330 l 257
 681 866 l 257
 1080 1079 l 257
 1173 899 l 257
 728 752 l 257
 1046 374 l 257
EndSplineSet
EndChar

StartChar: at
Encoding: 33 64 137
Width: 1229
VWidth: 0
Flags: HW
LayerCount: 2
Fore
SplineSet
813 746 m 256
 813 882 794 1029 679 1029 c 256
 533 1029 493 751 493 620 c 256
 493 511 515 394 628 394 c 256
 758 394 813 626 813 746 c 256
921 523 m 256
 921 468 949 386 999 386 c 256
 1106 386 1143 770 1143 904 c 256
 1143 1201 995 1440 724 1440 c 256
 358 1440 193 1066 193 641 c 256
 193 282 366 1 692 1 c 256
 868 1 1005 77 1115 173 c 257
 1163 117 l 257
 1043 1 887 -88 681 -88 c 256
 253 -88 80 309 80 643 c 256
 80 1154 357 1516 706 1516 c 256
 1079 1516 1237 1234 1237 910 c 256
 1237 666 1177 304 989 304 c 256
 884 304 833 393 822 504 c 257
 774 342 669 296 602 296 c 256
 432 296 377 472 377 650 c 256
 377 886 495 1130 669 1130 c 256
 760 1130 814 1042 842 970 c 257
 863 1097 l 257
 978 1097 l 258
 977 1097 921 731 921 523 c 256
EndSplineSet
EndChar

StartChar: b
Encoding: 67 98 139
Width: 1229
VWidth: 0
Flags: HW
LayerCount: 2
Fore
SplineSet
353 555 m 256
 353 319 407 116 648 116 c 256
 878 116 931 341 931 555 c 256
 931 779 886 990 648 990 c 256
 399 990 353 797 353 555 c 256
353 946 m 257
 414 1046 505 1130 681 1130 c 256
 990 1130 1114 879 1114 568 c 256
 1114 248 989 -25 670 -25 c 256
 501 -25 430 49 353 150 c 257
 351 0 l 257
 171 0 l 257
 171 1545 l 257
 353 1565 l 257
 353 946 l 257
EndSplineSet
EndChar

StartChar: backslash
Encoding: 61 92 140
Width: 1229
VWidth: 0
Flags: HW
LayerCount: 2
Fore
SplineSet
1082 -48 m 257
 902 -48 l 257
 193 1761 l 257
 377 1761 l 257
 1082 -48 l 257
EndSplineSet
EndChar

StartChar: bar
Encoding: 93 124 141
Width: 1229
VWidth: 0
Flags: HW
LayerCount: 2
Fore
SplineSet
530 -441 m 257
 530 1585 l 257
 691 1585 l 257
 691 -441 l 257
 530 -441 l 257
EndSplineSet
EndChar

StartChar: braceleft
Encoding: 92 123 142
Width: 1229
VWidth: 0
Flags: HW
LayerCount: 2
Fore
SplineSet
514 455 m 258
 514 619 386 699 225 709 c 257
 225 844 l 257
 386 854 514 933 514 1097 c 258
 514 1330 l 258
 514 1586.93 608.21 1706 869.71 1706 c 258
 873 1706 l 257
 1101 1705 l 257
 1101 1569 l 257
 873 1569 l 258
 743 1569 736 1460 736 1330 c 258
 736 1089 l 258
 736 890 639 834 490 776 c 257
 639 718 736 663 736 464 c 258
 736 223 l 258
 736 93 743 -17 873 -17 c 258
 1101 -17 l 257
 1101 -152 l 257
 873 -153.006 l 257
 869.71 -153.006 l 258
 608.21 -153.006 514 -33.9254 514 223 c 258
 514 455 l 258
EndSplineSet
EndChar

StartChar: braceright
Encoding: 94 125 143
Width: 1229
VWidth: 0
Flags: HW
LayerCount: 2
Fore
SplineSet
790 1097 m 258
 790 933 918 854 1079 844 c 257
 1079 709 l 257
 918 699 790 619 790 455 c 258
 790 223 l 258
 790 -33.9254 695.79 -153.006 434.29 -153.006 c 258
 431 -153.006 l 257
 202 -152 l 257
 202 -17 l 257
 431 -17 l 258
 561 -17 568 93 568 223 c 258
 568 464 l 258
 568 663 664 718 813 776 c 257
 664 834 568 890 568 1089 c 258
 568 1330 l 258
 568 1460 561 1569 431 1569 c 258
 202 1569 l 257
 202 1705 l 257
 431 1706 l 257
 434.29 1706 l 258
 695.79 1706 790 1586.93 790 1330 c 258
 790 1097 l 258
EndSplineSet
EndChar

StartChar: bracketleft
Encoding: 60 91 144
Width: 1229
VWidth: 0
Flags: HW
LayerCount: 2
Fore
SplineSet
395 -131 m 257
 395 1725 l 257
 396 1728 397 1729 400 1730 c 257
 914 1730 l 257
 917 1729 918 1728 919 1725 c 257
 919 1593 l 257
 918 1590 917 1589 914 1588 c 257
 584 1588 l 257
 584 6 l 257
 915 6 l 257
 918 5 919 4 920 1 c 257
 920 -131 l 257
 919 -134 918 -135 915 -136 c 257
 400 -136 l 257
 397 -135 396 -134 395 -131 c 257
EndSplineSet
EndChar

StartChar: bracketright
Encoding: 62 93 145
Width: 1229
VWidth: 0
Flags: HW
LayerCount: 2
Fore
SplineSet
775 -131 m 257
 774 -134 773 -135 770 -136 c 257
 255 -136 l 257
 252 -135 251 -134 250 -131 c 257
 250 1 l 257
 251 4 252 5 255 6 c 257
 586 6 l 257
 586 1588 l 257
 256 1588 l 257
 253 1589 252 1590 251 1593 c 257
 251 1725 l 257
 252 1728 253 1729 256 1730 c 257
 770 1730 l 257
 773 1729 774 1728 775 1725 c 257
 775 -131 l 257
EndSplineSet
EndChar

StartChar: breve
Encoding: 321 728 146
Width: 1229
VWidth: 0
Flags: HW
AnchorPoint: "top" 626.5 1097 mark 0
LayerCount: 2
Fore
SplineSet
411 1579 m 257
 429 1482 506 1438 620 1438 c 256
 734 1438 819 1488 843 1579 c 257
 940 1579 l 257
 928 1409 812 1323 629 1323 c 256
 441 1323 329 1405 313 1579 c 257
 411 1579 l 257
EndSplineSet
EndChar

StartChar: brokenbar
Encoding: 102 166 147
Width: 1229
VWidth: 0
Flags: HW
LayerCount: 2
Fore
SplineSet
539 1677 m 257
 711 1677 l 257
 711 735 l 257
 539 735 l 257
 539 1677 l 257
539 427 m 257
 711 427 l 257
 711 -533 l 257
 539 -533 l 257
 539 427 l 257
EndSplineSet
EndChar

StartChar: bullet
Encoding: 338 8226 148
Width: 1229
VWidth: 0
Flags: HW
LayerCount: 2
Fore
SplineSet
1126 760 m 256
 1126 555 954 418 749 418 c 256
 525 418 379 587 379 753 c 256
 379 981 604 1096 757 1096 c 256
 981 1096 1126 925 1126 760 c 256
EndSplineSet
EndChar

StartChar: c
Encoding: 68 99 149
Width: 1229
VWidth: 0
Flags: HW
PickledData: "(dp1
S'com.typemytype.robofont.layerData'
p2
(dp3
s."
AnchorPoint: "bottom" 637 0 basechar 0
AnchorPoint: "top" 637 1097 basechar 0
LayerCount: 2
Fore
SplineSet
1026 72 m 257
 954 5 834 -25 725 -25 c 256
 384 -25 195 249 195 555 c 256
 195 858 395 1130 722 1130 c 256
 850 1130 957 1087 1018 1035 c 257
 942 924 l 257
 895 956 832 990 726 990 c 256
 518 990 379 805 379 551 c 256
 379 300 512 115 733 115 c 256
 832 115 891 142 952 185 c 257
 1026 72 l 257
EndSplineSet
EndChar

StartChar: caron
Encoding: 320 711 151
Width: 1229
VWidth: 0
Flags: HW
AnchorPoint: "top" 638 1097 mark 0
LayerCount: 2
Fore
SplineSet
444 1614 m 257
 632 1379 l 257
 822 1614 l 257
 993 1614 l 257
 720 1266 l 257
 555 1266 l 257
 283 1614 l 257
 444 1614 l 257
EndSplineSet
EndChar

StartChar: cedilla
Encoding: 120 184 156
Width: 1229
VWidth: 0
Flags: HW
AnchorPoint: "bottom" 616 3 mark 0
LayerCount: 2
Fore
SplineSet
731 -261 m 256
 731 -199 672 -183 609 -183 c 256
 581 -183 561 -186 534 -188 c 257
 569 19 l 257
 677 19 l 257
 657 -98 l 257
 666 -97 l 257
 787 -97 888 -139 888 -260 c 256
 888 -395 752 -428 617 -428 c 256
 548 -428 487 -417 428 -405 c 257
 437 -313 l 257
 488 -325 545 -339 604 -339 c 256
 668 -339 731 -325 731 -261 c 256
EndSplineSet
EndChar

StartChar: cent
Encoding: 98 162 157
Width: 1229
VWidth: 0
Flags: HW
LayerCount: 2
Fore
SplineSet
752 -277 m 257
 624 -277 l 257
 624 -19.8501 l 257
 332.934 19.1015 173 273.511 173 555 c 256
 173 833.768 342.282 1086.29 624 1124.9 c 257
 624 1368 l 257
 752 1368 l 257
 752 1127.96 l 257
 857.282 1119.59 945.584 1085.83 999 1035 c 257
 953 913 l 257
 887.014 956.991 818.56 979.383 752 986.965 c 257
 752 117.107 l 257
 833.946 125.521 905.575 158.045 958 195 c 257
 1002 72 l 257
 940.697 14.9546 846.048 -15.2687 752 -22.9903 c 257
 752 -277 l 257
624 125.411 m 257
 624 981.086 l 257
 464.068 941.326 357 772.368 357 551 c 256
 357 334.902 455.502 167.725 624 125.411 c 257
EndSplineSet
EndChar

StartChar: circumflex
Encoding: 319 710 158
Width: 1229
VWidth: 0
Flags: HW
AnchorPoint: "top" 625.5 1097 mark 0
LayerCount: 2
Fore
SplineSet
709 1615 m 257
 968 1266 l 257
 825 1266 l 257
 621 1501 l 257
 419 1266 l 257
 283 1266 l 257
 542 1615 l 257
 709 1615 l 257
EndSplineSet
EndChar

StartChar: colon
Encoding: 27 58 159
Width: 1229
VWidth: 0
Flags: HW
PickledData: "(dp1
S'com.typemytype.robofont.layerData'
p2
(dp3
s."
LayerCount: 2
Fore
SplineSet
768 156 m 257
 492 156 l 257
 492 435 l 257
 768 435 l 257
 768 156 l 257
768 840 m 257
 492 840 l 257
 492 1120 l 257
 768 1120 l 257
 768 840 l 257
EndSplineSet
EndChar

StartChar: comma
Encoding: 13 44 160
Width: 1229
VWidth: 0
Flags: HW
AnchorPoint: "bottom" 623 492 mark 0
LayerCount: 2
Fore
SplineSet
440 -321 m 257
 491 286 l 257
 748 286 l 257
 562 -321 l 257
 440 -321 l 257
EndSplineSet
EndChar

StartChar: copyright
Encoding: 105 169 161
Width: 1229
VWidth: 0
Flags: HW
LayerCount: 2
Fore
SplineSet
1234 1069 m 257
 1162 1131 1062 1173 937 1173 c 256
 712 1173 568 1018 568 795 c 257
 570 795 l 257
 570 565 720 413 951 413 c 256
 1066 413 1162 443 1229 499 c 257
 1273 368 l 257
 1185 306 1072 270 932 270 c 256
 595 270 400 527 400 792 c 256
 400 1132 663 1311 944 1311 c 256
 1082 1311 1188 1267 1269 1200 c 257
 1234 1069 l 257
896 1483 m 256
 459 1483 146 1184 146 813 c 256
 146 350 513 92 876 92 c 256
 1348 92 1650 394 1650 786 c 256
 1650 1249 1245 1483 896 1483 c 256
1793 787 m 257
 1793 433 1588 201 1353 76 c 256
 1232 12 1081 -34 904 -34 c 256
 536 -34 274 142 129 369 c 256
 58 480 6 617 6 788 c 256
 6 1143 214 1373 449 1499 c 256
 570 1564 720 1610 898 1610 c 256
 1266 1610 1523 1432 1669 1205 c 256
 1739 1096 1792 956 1792 787 c 257
 1793 787 l 257
EndSplineSet
EndChar

StartChar: currency
Encoding: 100 164 162
Width: 1229
VWidth: 0
Flags: HW
LayerCount: 2
Fore
SplineSet
325 1264 m 257
 402 1334 505 1376 617 1376 c 256
 731 1376 834 1333 912 1261 c 257
 1149 1480 l 257
 1194 1424 l 257
 960 1208 l 257
 1017 1134 1052 1041 1052 941 c 256
 1052 841 1018 749 961 675 c 257
 1194 459 l 257
 1149 403 l 257
 912 622 l 257
 834 550 731 506 617 506 c 256
 504 506 401 549 324 619 c 257
 91 403 l 257
 38 454 l 257
 275 672 l 257
 217 746 182 840 182 941 c 256
 182 1043 217 1136 275 1210 c 257
 38 1429 l 257
 91 1480 l 257
 325 1264 l 257
272 941 m 256
 272 751 427 596 617 596 c 256
 807 596 962 751 962 941 c 256
 962 1131 807 1286 617 1286 c 256
 427 1286 272 1131 272 941 c 256
EndSplineSet
EndChar

StartChar: d
Encoding: 69 100 163
Width: 1229
VWidth: 0
Flags: HW
AnchorPoint: "center" 615 549 basechar 0
LayerCount: 2
Fore
SplineSet
878 555 m 256
 878 797 835 990 586 990 c 256
 348 990 304 769 304 545 c 256
 304 331 356 115 586 115 c 256
 827 115 878 346 878 555 c 256
878 946 m 257
 878 1545 l 257
 1060 1565 l 257
 1060 0 l 257
 878 0 l 257
 878 170 l 257
 831 89 733 -25 564 -25 c 256
 245 -25 121 238 121 558 c 256
 121 869 256 1130 565 1130 c 256
 741 1130 837 1046 878 946 c 257
EndSplineSet
EndChar

StartChar: dagger
Encoding: 336 8224 164
Width: 1229
VWidth: 0
Flags: HW
LayerCount: 2
Fore
SplineSet
240 1014 m 257
 240 1158 l 257
 601 1158 l 257
 601 1575 l 257
 758 1575 l 257
 758 1158 l 257
 1139 1158 l 257
 1139 1014 l 257
 743 1014 l 257
 743 123 l 257
 601 123 l 257
 601 1014 l 257
 240 1014 l 257
EndSplineSet
EndChar

StartChar: daggerdbl
Encoding: 337 8225 165
Width: 1229
VWidth: 0
Flags: HW
LayerCount: 2
Fore
SplineSet
236 1067 m 257
 236 1211 l 257
 617 1211 l 257
 589 1575 l 257
 754 1575 l 257
 754 1211 l 257
 1135 1211 l 257
 1135 1067 l 257
 746 1067 l 257
 746 610 l 257
 1127 610 l 257
 1127 472 l 257
 746 472 l 257
 775 123 l 257
 586 123 l 257
 610 472 l 257
 229 472 l 257
 229 610 l 257
 610 610 l 257
 610 1067 l 257
 236 1067 l 257
EndSplineSet
EndChar

StartChar: degree
Encoding: 112 176 168
Width: 1229
VWidth: 0
Flags: HW
LayerCount: 2
Fore
SplineSet
1006 1248 m 256
 1006 1060 840 929 653 929 c 256
 440 929 299 1096 299 1248 c 256
 299 1437 464 1567 653 1567 c 256
 865 1567 1006 1405 1006 1248 c 256
653 1054 m 256
 770 1054 868 1134 868 1250 c 256
 868 1366 769 1442 653 1442 c 256
 538 1442 438 1365 438 1250 c 256
 438 1134 536 1054 653 1054 c 256
EndSplineSet
EndChar

StartChar: dieresis
Encoding: 104 168 169
Width: 1229
VWidth: 0
Flags: HW
AnchorPoint: "top" 644 1097 mark 0
LayerCount: 2
Fore
SplineSet
756 1453 m 257
 940 1453 l 257
 940 1274 l 257
 756 1274 l 257
 756 1453 l 257
336 1453 m 257
 520 1453 l 257
 520 1274 l 257
 336 1274 l 257
 336 1453 l 257
EndSplineSet
EndChar

StartChar: divide
Encoding: 183 247 170
Width: 1229
VWidth: 0
Flags: HW
LayerCount: 2
Fore
SplineSet
619 948 m 257
 619 1175 l 257
 858 1175 l 257
 858 948 l 257
 619 948 l 257
619 22 m 257
 619 251 l 257
 858 251 l 257
 858 22 l 257
 619 22 l 257
152 677 m 257
 1311 677 l 257
 1311 526 l 257
 152 526 l 257
 152 677 l 257
EndSplineSet
EndChar

StartChar: dollar
Encoding: 5 36 171
Width: 1229
VWidth: 0
Flags: HW
LayerCount: 2
Fore
SplineSet
573 1752 m 257
 666 1752 l 257
 666 1515.25 l 257
 803.755 1507.21 914.088 1471.46 997 1406 c 257
 927 1262 l 257
 860.794 1313.59 770.192 1351.13 666 1360.64 c 257
 666 849.534 l 257
 680.005 844.019 693.434 838.552 706 833 c 256
 878 757 1054 658 1054 415 c 256
 1054 149.692 903.136 4.09035 666 -21.0617 c 257
 666 -218 l 257
 573 -218 l 257
 573 -24.8922 l 257
 399.144 -22.539 254.535 18.3101 141 94 c 257
 212 261 l 257
 300.999 188.27 425.714 134.771 573 130.303 c 257
 573 687.001 l 257
 546.489 697.588 520.398 707.665 496 718 c 256
 324 790 150 879 150 1123 c 256
 150 1369.56 331.327 1505.68 573 1516.32 c 257
 573 1752 l 257
573 886.06 m 257
 573 1360.81 l 257
 439.799 1346.12 357 1258.4 357 1121 c 256
 357 993.185 464.321 931.226 573 886.06 c 257
666 646.383 m 257
 666 138.328 l 257
 781.257 166.602 843 264.954 843 404 c 256
 843 530.983 761.979 598.498 666 646.383 c 257
EndSplineSet
EndChar

StartChar: dotaccent
Encoding: 322 729 172
Width: 1229
VWidth: 0
Flags: HW
AnchorPoint: "top" 596.5 1097 mark 0
LayerCount: 2
Fore
SplineSet
508 1529 m 257
 685 1529 l 257
 685 1352 l 257
 508 1352 l 257
 508 1529 l 257
EndSplineSet
EndChar

StartChar: dotlessi
Encoding: 239 305 173
Width: 1229
VWidth: 0
Flags: HW
AnchorPoint: "ogonek" 1106 10 basechar 0
AnchorPoint: "top" 615 1097 basechar 0
LayerCount: 2
Fore
SplineSet
266 953 m 257
 266 1097 l 257
 788 1097 l 257
 788 144 l 257
 1185 144 l 257
 1185 0 l 257
 197 0 l 257
 197 144 l 257
 606 144 l 257
 606 953 l 257
 266 953 l 257
EndSplineSet
EndChar

StartChar: e
Encoding: 70 101 174
Width: 1229
VWidth: 0
Flags: HW
PickledData: "(dp1
S'com.typemytype.robofont.layerData'
p2
(dp3
s."
AnchorPoint: "bottom" 738 0 basechar 0
AnchorPoint: "ogonek" 876 1 basechar 0
AnchorPoint: "top" 685 1098 basechar 0
LayerCount: 2
Fore
SplineSet
235 555 m 256
 235 868 398 1131 680 1131 c 256
 978 1131 1114 880 1114 581 c 258
 1114 520 l 257
 419 520 l 257
 428 303 522 115 743 115 c 256
 860 115 938 150 1012 212 c 257
 1092 111 l 257
 1010 34 908 -25 737 -25 c 256
 406 -25 235 224 235 555 c 256
940 653 m 257
 930 821 880 990 704 990 c 256
 506 990 445 831 425 653 c 257
 940 653 l 257
EndSplineSet
EndChar

StartChar: eight
Encoding: 25 56 181
Width: 1229
VWidth: 0
Flags: HW
LayerCount: 2
Fore
SplineSet
849 1150 m 256
 849 1281 754 1363 626 1363 c 256
 499 1363 404 1280 404 1150 c 256
 404 982 497 909 626 874 c 257
 755 909 849 982 849 1150 c 256
1070 406 m 256
 1070 131 899 -24 626 -24 c 256
 353 -24 181 131 181 406 c 256
 181 612 331 730 491 778 c 257
 334 833 211 942 211 1142 c 256
 211 1380 392 1516 626 1516 c 256
 860 1516 1042 1380 1042 1142 c 256
 1042 943 919 833 762 778 c 257
 922 730 1070 611 1070 406 c 256
396 378 m 256
 396 224 477 130 626 130 c 256
 776 130 857 223 857 378 c 256
 857 554 759 638 626 678 c 257
 494 638 396 553 396 378 c 256
EndSplineSet
EndChar

StartChar: ellipsis
Encoding: 339 8230 182
Width: 1229
VWidth: 0
Flags: HW
LayerCount: 2
Fore
SplineSet
675 -12 m 257
 675 216 l 257
 916 216 l 257
 916 -12 l 257
 675 -12 l 257
1274 -12 m 257
 1274 216 l 257
 1514 216 l 257
 1514 -12 l 257
 1274 -12 l 257
78 -12 m 257
 78 216 l 257
 319 216 l 257
 319 -12 l 257
 78 -12 l 257
EndSplineSet
EndChar

StartChar: emdash
Encoding: 328 8212 184
Width: 1229
VWidth: 0
Flags: HW
LayerCount: 2
Fore
SplineSet
-6 531 m 257
 -6 680 l 257
 1235 680 l 257
 1235 531 l 257
 -6 531 l 257
EndSplineSet
EndChar

StartChar: endash
Encoding: 327 8211 185
Width: 1229
VWidth: 0
Flags: HW
LayerCount: 2
Fore
SplineSet
184 531 m 257
 184 680 l 257
 1391 680 l 257
 1391 531 l 257
 184 531 l 257
EndSplineSet
EndChar

StartChar: eng
Encoding: 264 331 186
Width: 1229
VWidth: 0
Flags: HW
LayerCount: 2
Fore
SplineSet
713 1130 m 256
 966 1130 1054 955 1054 698 c 258
 1053 56 l 258
 1053 -270 1036 -431 661 -431 c 258
 398 -431 l 257
 398 -291 l 257
 660 -291 l 258
 846 -291 871 -247 871 0 c 258
 872 676.317 l 258
 872 842.828 866.598 990 649 990 c 256
 511 990 378 898 378 742 c 258
 378 0 l 257
 196 0 l 257
 196 1097 l 257
 363 1097 l 257
 373 978 l 257
 436 1066 546 1130 713 1130 c 256
EndSplineSet
EndChar

StartChar: equal
Encoding: 30 61 188
Width: 1229
VWidth: 0
Flags: HW
PickledData: "(dp1
S'com.typemytype.robofont.layerData'
p2
(dp3
s."
LayerCount: 2
Fore
SplineSet
1095 457 m 257
 136 457 l 257
 136 605 l 257
 1095 605 l 257
 1095 457 l 257
1094 898 m 257
 135 898 l 257
 135 1048 l 257
 1094 1048 l 257
 1094 898 l 257
EndSplineSet
EndChar

StartChar: eth
Encoding: 176 240 189
Width: 1229
VWidth: 0
Flags: HW
LayerCount: 2
Fore
SplineSet
673 129 m 256
 931 129 1040 327 1040 583 c 256
 1040 737 812 822 662 822 c 256
 451 822 331 689 331 480 c 256
 331 274 465 129 673 129 c 256
1247 743 m 256
 1247 321 1105 -25 681 -25 c 256
 341 -25 135 201 135 484 c 257
 136 485 l 257
 136 787 338 975 641 975 c 256
 837 975 976 908 1054 786 c 257
 1054 909 1043 1015 1014 1115 c 257
 724 1115 l 257
 724 1264 l 257
 951 1264 l 257
 887 1379 789 1464 673 1527 c 257
 760 1619 l 257
 932 1554 1059 1422 1137 1264 c 257
 1355 1264 l 257
 1355 1115 l 257
 1193 1115 l 257
 1229 1004 1247 883 1247 743 c 256
EndSplineSet
EndChar

StartChar: exclam
Encoding: 2 33 190
Width: 1229
VWidth: 0
Flags: HW
LayerCount: 2
Fore
SplineSet
735 0 m 257
 495 0 l 257
 495 276 l 257
 735 276 l 257
 735 0 l 257
584 489 m 257
 495 1492 l 257
 735 1492 l 257
 646 489 l 257
 584 489 l 257
EndSplineSet
EndChar

StartChar: exclamdown
Encoding: 97 161 191
Width: 1229
VWidth: 0
Flags: HW
LayerCount: 2
Fore
SplineSet
723 1184 m 257
 723 959 l 257
 487 959 l 257
 487 1184 l 257
 723 1184 l 257
542 -417 m 257
 542 753 l 257
 715 753 l 257
 715 -417 l 257
 542 -417 l 257
EndSplineSet
EndChar

StartChar: f
Encoding: 71 102 192
Width: 1229
VWidth: 0
Flags: HW
LayerCount: 2
Fore
SplineSet
675 0 m 257
 493 0 l 257
 493 957 l 257
 206 957 l 257
 206 1097 l 257
 493 1097 l 257
 493 1433 520 1585 944 1585 c 258
 1050 1585 l 257
 1040 1445 l 257
 940 1445 l 258
 751 1445 675 1419 675 1230 c 258
 675 1097 l 257
 1050 1097 l 257
 1050 957 l 257
 675 957 l 257
 675 0 l 257
EndSplineSet
EndChar

StartChar: five
Encoding: 22 53 193
Width: 1229
VWidth: 0
Flags: HW
LayerCount: 2
Fore
SplineSet
242 275 m 257
 371 171 491 130 615 130 c 256
 809 130 909 316 909 494 c 256
 909 655 826 809 654 809 c 256
 533 809 474 699 474 699 c 257
 264 699 l 257
 264 1492 l 257
 987 1492 l 257
 987 1346 l 257
 452 1346 l 257
 452 880 l 257
 452 880 552 976 674 976 c 256
 965 976 1110 739 1110 495 c 256
 1110 239 950 -23 633 -23 c 256
 423 -23 290 30 168 121 c 257
 242 275 l 257
EndSplineSet
EndChar

StartChar: florin
Encoding: 314 402 194
Width: 1229
VWidth: 0
Flags: HW
LayerCount: 2
Fore
SplineSet
1238 1381 m 257
 1204 1394 1168 1404 1124 1404 c 256
 908 1404 920 1207 887 1024 c 257
 1108 1024 l 257
 1098 872 l 257
 862 872 l 257
 721 130 l 257
 675 -96 607 -360 356 -360 c 256
 304 -360 257 -355 215 -343 c 257
 228 -194 l 257
 257 -205 287 -210 317 -210 c 256
 448 -210 478 -72 508 37 c 256
 579 296 619 596 672 872 c 257
 500 872 l 257
 511 1024 l 257
 699 1024 l 257
 737 1305 769 1559 1090 1559 c 256
 1149 1559 1199 1551 1248 1539 c 257
 1238 1381 l 257
EndSplineSet
EndChar

StartChar: four
Encoding: 21 52 195
Width: 1229
VWidth: 0
Flags: HW
LayerCount: 2
Fore
SplineSet
710 1282 m 257
 250 538 l 257
 710 538 l 257
 710 1282 l 257
897 0 m 257
 710 0 l 257
 710 398 l 257
 61 398 l 257
 61 541 l 257
 667 1492 l 257
 897 1492 l 257
 897 538 l 257
 1139 538 l 257
 1139 398 l 257
 897 398 l 257
 897 0 l 257
EndSplineSet
EndChar

StartChar: fraction
Encoding: 343 8260 196
Width: 1229
VWidth: 0
Flags: HW
LayerCount: 2
Fore
SplineSet
873 1761 m 257
 1059 1761 l 257
 350 -48 l 257
 170 -48 l 257
 873 1761 l 257
EndSplineSet
EndChar

StartChar: g
Encoding: 72 103 197
Width: 1229
VWidth: 0
Flags: HW
PickledData: "(dp1
S'com.typemytype.robofont.layerData'
p2
(dp3
s."
AnchorPoint: "top" 615 1097 basechar 0
LayerCount: 2
Fore
SplineSet
902 210 m 257
 860 103 726.348 -0.00294273 571.371 -0.00294273 c 256
 295.333 -0.00294273 126 253.595 126 556 c 256
 126 880 264 1130 577 1130 c 256
 722 1130 819 1061 888 948 c 257
 894 1097 l 257
 1070 1097 l 257
 1070 181 l 258
 1070 -281 909 -461 322 -461 c 257
 307 -321 l 257
 730 -321 902 -249 902 137 c 258
 902 210 l 257
597 990 m 256
 362 990 309 788 309 550 c 256
 309 360 378 162 589 162 c 256
 823 162 888 361 888 556 c 256
 888 784 833 990 597 990 c 256
EndSplineSet
EndChar

StartChar: gcommaaccent
Encoding: 225 291 200
Width: 1229
VWidth: 0
Flags: HW
LayerCount: 2
Fore
SplineSet
429 1249 m 257
 610 1752 l 257
 756 1752 l 257
 637 1249 l 257
 429 1249 l 257
891 210 m 257
 849 103 722 0 568 0 c 256
 261 0 111 253 111 556 c 256
 111 880 259 1130 572 1130 c 256
 717 1130 822 1061 891 948 c 257
 897 1097 l 257
 1082 1097 l 257
 1074 879 1073 670 1073 446 c 258
 1073 152 l 258
 1073 -317 833 -441 310 -441 c 257
 310 -274 l 257
 317.192 -274 l 258
 600.72 -274 820.46 -273.017 875 -38 c 256
 886 9 891 68 891 137 c 258
 891 210 l 257
592 969 m 256
 357 969 294 777 294 550 c 256
 294 360 373 162 584 162 c 256
 818 162 891 361 891 556 c 256
 891 773 828 969 592 969 c 256
EndSplineSet
EndChar

StartChar: germandbls
Encoding: 159 223 202
Width: 1229
VWidth: 0
Flags: HW
LayerCount: 2
Fore
SplineSet
664 1599 m 256
 912 1599 1141 1504 1141 1256 c 256
 1141 1052 944 945 823 858 c 257
 1018 739 1347 633 1347 363 c 256
 1347 104 1168 -26 908 -26 c 256
 762 -26 626 11 541 76 c 257
 612 225 l 257
 687 182 782 139 892 139 c 256
 1022 139 1111 217 1111 347 c 256
 1111 498 960 570 862 627 c 256
 771 680 613 749 613 841 c 256
 613 929 712 983 768 1023 c 256
 838 1073 922 1138 922 1254 c 256
 922 1390 796 1442 660 1442 c 256
 462 1442 382 1292 382 1096 c 258
 382 0 l 257
 164 0 l 257
 164 1116 l 258
 164 1429 350 1599 664 1599 c 256
EndSplineSet
EndChar

StartChar: grave
Encoding: 65 96 203
Width: 1229
VWidth: 0
Flags: HW
AnchorPoint: "top" 884.5 1097 mark 0
LayerCount: 2
Fore
SplineSet
654 1705 m 257
 937 1268 l 257
 798 1268 l 257
 418 1705 l 257
 654 1705 l 257
EndSplineSet
EndChar

StartChar: greater
Encoding: 31 62 204
Width: 1229
VWidth: 0
Flags: HW
LayerCount: 2
Fore
SplineSet
158 1155 m 257
 158 1321 l 257
 1178 794 l 257
 1178 699 l 257
 152 213 l 257
 152 380 l 257
 933 753 l 257
 158 1155 l 257
EndSplineSet
EndChar

StartChar: greaterequal
Encoding: 357 8805 205
Width: 1229
VWidth: 0
Flags: HW
LayerCount: 2
Fore
SplineSet
152 9 m 257
 152 143 l 257
 1271 143 l 257
 1249 9 l 257
 152 9 l 257
1249 812 m 257
 1249 726 l 257
 187 237 l 257
 187 389 l 257
 1053 767 l 257
 152 1174 l 257
 191 1325 l 257
 1249 812 l 257
EndSplineSet
EndChar

StartChar: guillemotleft
Encoding: 107 171 206
Width: 1229
VWidth: 0
Flags: HW
LayerCount: 2
Fore
SplineSet
1086 992 m 257
 794 588 l 257
 1077 185 l 257
 904 185 l 257
 607 588 l 257
 910 992 l 257
 1086 992 l 257
679 992 m 257
 386 588 l 257
 668 185 l 257
 495 185 l 257
 197 588 l 257
 502 992 l 257
 679 992 l 257
EndSplineSet
EndChar

StartChar: guillemotright
Encoding: 123 187 207
Width: 1229
VWidth: 0
Flags: HW
LayerCount: 2
Fore
SplineSet
636 185 m 257
 926 589 l 257
 645 992 l 257
 817 992 l 257
 1116 589 l 257
 809 185 l 257
 636 185 l 257
197 185 m 257
 489 589 l 257
 203 992 l 257
 380 992 l 257
 678 589 l 257
 373 185 l 257
 197 185 l 257
EndSplineSet
EndChar

StartChar: guilsinglleft
Encoding: 341 8249 208
Width: 1229
VWidth: 0
Flags: HW
LayerCount: 2
Fore
SplineSet
881 992 m 257
 589 588 l 257
 871 185 l 257
 698 185 l 257
 401 588 l 257
 704 992 l 257
 881 992 l 257
EndSplineSet
EndChar

StartChar: guilsinglright
Encoding: 342 8250 209
Width: 1229
VWidth: 0
Flags: HW
LayerCount: 2
Fore
SplineSet
401 185 m 257
 691 589 l 257
 409 992 l 257
 582 992 l 257
 881 589 l 257
 575 185 l 257
 401 185 l 257
EndSplineSet
EndChar

StartChar: h
Encoding: 73 104 210
Width: 1229
VWidth: 0
Flags: HW
AnchorPoint: "center" 283 1297 basechar 0
AnchorPoint: "top" 719 1577 basechar 0
LayerCount: 2
Fore
SplineSet
1044 662 m 258
 1044 0 l 257
 862 0 l 257
 862 639 l 258
 862 827 833 990 650 990 c 256
 479 990 364 856 364 746 c 258
 364 0 l 257
 182 0 l 257
 182 1545 l 257
 364 1565 l 257
 364 964 l 257
 417 1033 523 1130 707 1130 c 256
 957 1130 1044 937 1044 662 c 258
EndSplineSet
EndChar

StartChar: hbar
Encoding: 229 295 211
Width: 1229
VWidth: 0
Flags: HW
LayerCount: 2
Fore
SplineSet
4 1284 m 261
 4 1430 l 261
 638 1430 l 261
 638 1284 l 261
 4 1284 l 261
EndSplineSet
Refer: 210 104 N 1 0 0 1 0 0 2
EndChar

StartChar: hungarumlaut
Encoding: 326 733 213
Width: 1229
VWidth: 0
Flags: HW
AnchorPoint: "top" 454.5 1097 mark 0
LayerCount: 2
Fore
SplineSet
246 1270 m 257
 495 1607 l 257
 685 1607 l 257
 374 1270 l 257
 246 1270 l 257
539 1270 m 257
 793 1607 l 257
 983 1607 l 257
 670 1270 l 257
 539 1270 l 257
EndSplineSet
EndChar

StartChar: hyphen
Encoding: 14 45 214
Width: 1229
VWidth: 0
Flags: HW
PickledData: "(dp1
S'com.typemytype.robofont.layerData'
p2
(dp3
s."
LayerCount: 2
Fore
SplineSet
983 706 m 257
 983 551 l 257
 247 551 l 257
 247 706 l 257
 983 706 l 257
EndSplineSet
EndChar

StartChar: i
Encoding: 74 105 215
Width: 1229
VWidth: 0
Flags: HW
LayerCount: 2
Fore
SplineSet
538 1386 m 258
 538 1485 l 258
 538 1535 609 1576 659 1576 c 256
 709 1576 780 1535 780 1485 c 258
 780 1386 l 258
 780 1336 709 1295 659 1295 c 256
 609 1295 538 1336 538 1386 c 258
255 957 m 257
 255 1097 l 257
 750 1097 l 257
 750 140 l 257
 1064 140 l 257
 1064 0 l 257
 220 0 l 257
 220 140 l 257
 568 140 l 257
 568 957 l 257
 255 957 l 257
EndSplineSet
EndChar

StartChar: ij
Encoding: 241 307 221
Width: 1229
VWidth: 0
Flags: HW
LayerCount: 2
Fore
SplineSet
305.5 1386 m 258
 305.5 1485 l 258
 305.5 1535 376.5 1576 426.5 1576 c 256
 476.5 1576 547.5 1535 547.5 1485 c 258
 547.5 1386 l 258
 547.5 1336 476.5 1295 426.5 1295 c 256
 376.5 1295 305.5 1336 305.5 1386 c 258
122.5 957 m 257
 122.5 1097 l 257
 517.5 1097 l 257
 517.5 140 l 257
 761.5 140 l 257
 761.5 0 l 257
 87.5 0 l 257
 87.5 140 l 257
 335.5 140 l 257
 335.5 957 l 257
 122.5 957 l 257
720.5 -220 m 258
 906.5 -220 931.5 -176 931.5 71 c 258
 931.5 957 l 257
 670.5 957 l 257
 670.5 1097 l 257
 1113.5 1097 l 257
 1113.5 127 l 258
 1113.5 -199 1096.5 -360 721.5 -360 c 258
 588.5 -360 l 257
 588.5 -220 l 257
 720.5 -220 l 258
899.5 1386 m 258
 899.5 1485 l 258
 899.5 1535 970.5 1576 1020.5 1576 c 256
 1070.5 1576 1141.5 1535 1141.5 1485 c 258
 1141.5 1386 l 258
 1141.5 1336 1070.5 1295 1020.5 1295 c 256
 970.5 1295 899.5 1336 899.5 1386 c 258
EndSplineSet
EndChar

StartChar: infinity
Encoding: 352 8734 223
Width: 1229
VWidth: 0
Flags: HW
LayerCount: 2
Fore
SplineSet
1341 1024 m 256
 1591 1024 1759 893 1759 644 c 256
 1759 393 1545 255 1359 255 c 256
 1133 255 1018 401 916 529 c 257
 813 401 661 255 472 255 c 256
 235 255 70 428 70 663 c 256
 70 903 306 1024 468 1024 c 256
 685 1024 821 874 919 750 c 257
 1014 869 1133 1024 1341 1024 c 256
467 899 m 256
 316 899 214 791 214 642 c 256
 214 494 327 385 476 385 c 256
 647 385 765 537 839 638 c 257
 761 750 652 899 467 899 c 256
1604 663 m 256
 1604 805 1502 900 1358 900 c 256
 1182 900 1112 777 1034 680 c 256
 1020 663 1007 651 993 642 c 257
 1078 531 1182 385 1345 385 c 256
 1521 385 1604 489 1604 663 c 256
EndSplineSet
EndChar

StartChar: integral
Encoding: 353 8747 224
Width: 1229
VWidth: 0
Flags: HW
LayerCount: 2
Fore
SplineSet
1019 1608 m 257
 988 1619 951 1624 910 1624 c 256
 752 1624 718 1545 718 1389 c 258
 718 -25 l 258
 718 -265 631 -433 388 -433 c 256
 334 -433 284 -423 239 -411 c 257
 236 -270 l 257
 269 -281 304 -287 345 -287 c 256
 501 -287 535 -205 535 -51 c 258
 535 1363 l 258
 535 1605 624 1771 868 1771 c 256
 922 1771 969 1758 1016 1748 c 257
 1019 1608 l 257
EndSplineSet
EndChar

StartChar: j
Encoding: 75 106 227
Width: 1229
VWidth: 0
Flags: HW
PickledData: "(dp1
S'com.typemytype.robofont.layerData'
p2
(dp3
s."
LayerCount: 2
Fore
SplineSet
460 -220 m 258
 646 -220 671 -176 671 71 c 258
 671 957 l 257
 280 957 l 257
 280 1097 l 257
 853 1097 l 257
 853 127 l 258
 853 -199 836 -360 461 -360 c 258
 198 -360 l 257
 198 -220 l 257
 460 -220 l 258
639 1386 m 258
 639 1485 l 258
 639 1535 710 1576 760 1576 c 256
 810 1576 881 1535 881 1485 c 258
 881 1386 l 258
 881 1336 810 1295 760 1295 c 256
 710 1295 639 1336 639 1386 c 258
EndSplineSet
EndChar

StartChar: k
Encoding: 76 107 229
Width: 1229
VWidth: 0
Flags: HW
PickledData: "(dp1
S'com.typemytype.robofont.layerData'
p2
(dp3
s."
AnchorPoint: "bottom" 615 0 basechar 0
LayerCount: 2
Fore
SplineSet
392 620 m 257
 865 1097 l 257
 1095 1097 l 257
 623 618 l 257
 1162 0 l 257
 946 0 l 257
 490 543 l 257
 392 457 l 257
 392 0 l 257
 210 0 l 257
 210 1545 l 257
 392 1565 l 257
 392 620 l 257
EndSplineSet
EndChar

StartChar: kgreenlandic
Encoding: 246 312 231
Width: 1229
VWidth: 0
Flags: HW
LayerCount: 2
Fore
SplineSet
398 604 m 257
 914 1113 l 257
 1164 1113 l 257
 576 555 l 257
 1204 0 l 257
 962 0 l 257
 397 511 l 257
 397 0 l 257
 215 0 l 257
 215 1114 l 257
 398 1114 l 257
 398 604 l 257
EndSplineSet
EndChar

StartChar: l
Encoding: 77 108 232
Width: 1229
VWidth: 0
Flags: HW
PickledData: "(dp1
S'com.typemytype.robofont.layerData'
p2
(dp3
s."
AnchorPoint: "topright" 1201 1097 basechar 0
AnchorPoint: "bottom" 607 0 basechar 0
AnchorPoint: "top" 551 1561 basechar 0
LayerCount: 2
Fore
SplineSet
1031 0 m 257
 886 0 l 258
 513 0 462 106 457 433 c 257
 457 1425 l 257
 129 1425 l 257
 129 1565 l 257
 639 1565 l 257
 639 442 l 258
 639 195 658 140 879 140 c 258
 1031 140 l 257
 1031 0 l 257
EndSplineSet
EndChar

StartChar: less
Encoding: 29 60 237
Width: 1229
VWidth: 0
Flags: HW
LayerCount: 2
Fore
SplineSet
1174 367 m 257
 1174 190 l 257
 152 689 l 257
 152 807 l 257
 1178 1321 l 257
 1178 1142 l 257
 395 749 l 257
 1174 367 l 257
EndSplineSet
EndChar

StartChar: lessequal
Encoding: 356 8804 238
Width: 1229
VWidth: 0
Flags: HW
LayerCount: 2
Fore
SplineSet
152 9 m 257
 152 143 l 257
 1275 143 l 257
 1275 9 l 257
 152 9 l 257
191 723 m 257
 191 811 l 257
 1243 1323 l 257
 1243 1172 l 257
 386 771 l 257
 1243 387 l 257
 1243 235 l 257
 191 723 l 257
EndSplineSet
EndChar

StartChar: logicalnot
Encoding: 108 172 239
Width: 1229
VWidth: 0
Flags: HW
LayerCount: 2
Fore
SplineSet
1146 715 m 257
 152 715 l 257
 152 866 l 257
 1311 866 l 257
 1311 258 l 257
 1146 258 l 257
 1146 715 l 257
EndSplineSet
EndChar

StartChar: lozenge
Encoding: 358 9674 240
Width: 1229
VWidth: 0
Flags: HW
LayerCount: 2
Fore
SplineSet
694 1437 m 257
 564 1210 424 997 289 774 c 257
 682 106 l 257
 810 334 949 549 1084 772 c 257
 954 994 819 1211 694 1437 c 257
740 -48 m 257
 624 -48 l 257
 125 772 l 257
 631 1595 l 257
 750 1595 l 257
 1251 773 l 257
 740 -48 l 257
EndSplineSet
EndChar

StartChar: lslash
Encoding: 256 322 241
Width: 1229
VWidth: 0
Flags: HW
LayerCount: 2
Fore
SplineSet
195 1433 m 257
 195 1585 l 257
 788 1585 l 257
 788 915.897 l 257
 1014 1043 l 257
 1014 894 l 257
 788 766.897 l 257
 788 144 l 257
 1259 144 l 257
 1259 0 l 257
 125 0 l 257
 125 144 l 257
 606 144 l 257
 606 678.009 l 257
 374 550 l 257
 374 699 l 257
 606 827.009 l 257
 606 1433 l 257
 195 1433 l 257
EndSplineSet
EndChar

StartChar: m
Encoding: 78 109 242
Width: 1229
VWidth: 0
Flags: HW
LayerCount: 2
Fore
SplineSet
857 990 m 256
 703 990 703 801 703 680 c 258
 703 0 l 257
 550 0 l 257
 550 669 l 258
 550 802 547 990 423 990 c 256
 311 990 267 836 267 721 c 258
 267 0 l 257
 100 0 l 257
 100 1097 l 257
 245 1097 l 257
 256 952 l 257
 288 1036 352 1130 462 1130 c 256
 567 1130 640 1065 668 960 c 257
 711 1070 780 1130 899 1130 c 256
 1107 1130 1140 914 1140 703 c 258
 1140 0 l 257
 973 0 l 257
 973 682 l 258
 973 824 973 990 857 990 c 256
EndSplineSet
EndChar

StartChar: macron
Encoding: 111 175 243
Width: 1229
VWidth: 0
Flags: HW
AnchorPoint: "top" 614.5 1097 mark 0
LayerCount: 2
Fore
SplineSet
275 1259 m 261
 275 1399 l 261
 954 1399 l 261
 954 1259 l 261
 275 1259 l 261
EndSplineSet
EndChar

StartChar: minus
Encoding: 350 8722 244
Width: 1229
VWidth: 0
Flags: HW
LayerCount: 2
Fore
SplineSet
1312 538 m 257
 152 538 l 257
 152 687 l 257
 1312 687 l 257
 1312 538 l 257
EndSplineSet
EndChar

StartChar: multiply
Encoding: 151 215 245
Width: 1229
VWidth: 0
Flags: HW
LayerCount: 2
Fore
SplineSet
1077 280 m 257
 961 168 l 257
 633 489 l 257
 305 168 l 257
 190 278 l 257
 518 602 l 257
 190 924 l 257
 305 1036 l 257
 633 713 l 257
 961 1036 l 257
 1077 923 l 257
 747 602 l 257
 1077 280 l 257
EndSplineSet
EndChar

StartChar: n
Encoding: 79 110 246
Width: 1229
VWidth: 0
Flags: HW
AnchorPoint: "bottom" 615 0 basechar 0
AnchorPoint: "top" 615 1097 basechar 0
LayerCount: 2
Fore
SplineSet
713 1130 m 256
 966 1130 1054 955 1054 698 c 258
 1054 0 l 257
 872 0 l 257
 872 650 l 257
 872 676.317 l 258
 872 842.828 866.598 990 649 990 c 256
 511 990 378 898 378 742 c 258
 378 0 l 257
 196 0 l 257
 196 1097 l 257
 363 1097 l 257
 373 978 l 257
 436 1066 546 1130 713 1130 c 256
EndSplineSet
EndChar

StartChar: nine
Encoding: 26 57 250
Width: 1229
VWidth: 0
Flags: HW
LayerCount: 2
Fore
SplineSet
953 1064 m 256
 953 1238 843 1363 667 1363 c 256
 497 1363 383 1233 383 1056 c 256
 383 883 482 750 655 750 c 256
 853 750 953 886 953 1064 c 256
665 1517 m 256
 972 1517 1153 1334 1153 1029 c 256
 1153 838 1079 699 989 583 c 258
 539 0 l 257
 297 0 l 257
 831 669 l 257
 780 637 694 610 615 610 c 256
 353 610 193 790 193 1052 c 256
 193 1352 420 1517 665 1517 c 256
EndSplineSet
EndChar

StartChar: notequal
Encoding: 355 8800 251
Width: 1229
VWidth: 0
Flags: HW
LayerCount: 2
Fore
SplineSet
929 922 m 257
 1271 922 l 257
 1282 791 l 257
 864 791 l 257
 700 483 l 257
 1273 483 l 257
 1282 353 l 257
 635 353 l 257
 480 50 l 257
 345 70 l 257
 487 353 l 257
 161 353 l 257
 153 483 l 257
 554 483 l 257
 716 791 l 257
 161 791 l 257
 152 922 l 257
 779 922 l 257
 930 1219 l 257
 1068 1200 l 257
 929 922 l 257
EndSplineSet
EndChar

StartChar: numbersign
Encoding: 4 35 253
Width: 1229
VWidth: 0
Flags: HW
LayerCount: 2
Fore
SplineSet
592 997 m 257
 509 573 l 257
 727 573 l 257
 811 997 l 257
 592 997 l 257
1155 997 m 257
 971 997 l 257
 886 573 l 257
 1073 573 l 257
 1058 437 l 257
 863 437 l 257
 772 -25 l 257
 610 -25 l 257
 698 437 l 257
 483 437 l 257
 393 -25 l 257
 230 -25 l 257
 324 437 l 257
 108 437 l 257
 121 573 l 257
 350 573 l 257
 430 996 l 257
 205 996 l 257
 219 1130 l 257
 455 1130 l 257
 541 1568 l 257
 704 1568 l 257
 619 1130 l 257
 837 1130 l 257
 921 1568 l 257
 1083 1568 l 257
 997 1130 l 257
 1172 1130 l 257
 1155 997 l 257
EndSplineSet
EndChar

StartChar: o
Encoding: 80 111 254
Width: 1229
VWidth: 0
Flags: HW
PickledData: "(dp1
S'com.typemytype.robofont.layerData'
p2
(dp3
s."
AnchorPoint: "top" 615 1097 basechar 0
LayerCount: 2
Fore
SplineSet
322 550 m 256
 322 336 384 115 612 115 c 256
 847 115 909 335 909 553 c 256
 909 770 848 990 612 990 c 256
 384 990 322 764 322 550 c 256
612 1130 m 256
 941 1130 1091 883 1091 558 c 256
 1091 210 910 -25 612 -25 c 256
 289 -25 138 232 138 551 c 256
 138 897 316 1130 612 1130 c 256
EndSplineSet
EndChar

StartChar: oe
Encoding: 272 339 259
Width: 1229
VWidth: 0
Flags: HW
AnchorPoint: "top" 615 1097 basechar 0
LayerCount: 2
Fore
SplineSet
1026 653 m 257
 1021 821 986 977 890 977 c 256
 792 977 747 824 739 653 c 257
 1026 653 l 257
1148 98 m 257
 1080 22 998 -25 875 -25 c 256
 774 -25 701 44 654 156 c 257
 599 41 517 -25 419 -25 c 256
 192 -25 70 232 70 551 c 256
 70 897 215 1130 427 1130 c 256
 531 1130 609 1062 661 951 c 257
 714 1065 793 1130 890 1130 c 256
 1073 1130 1170 880 1170 581 c 257
 1169 520 l 257
 733 520 l 257
 741 302 787 129 888 129 c 256
 969 129 1024 171 1068 222 c 257
 1148 98 l 257
253 550 m 256
 253 343 296 129 425 129 c 256
 547 129 589 337 589 559 c 256
 589 769 543 977 425 977 c 256
 296 977 253 757 253 550 c 256
EndSplineSet
EndChar

StartChar: ogonek
Encoding: 324 731 260
Width: 1229
VWidth: 0
Flags: HW
AnchorPoint: "ogonek" 711 0 mark 0
LayerCount: 2
Fore
SplineSet
414 -244 m 256
 414 -104 555 -33 653 13 c 257
 795 0 l 257
 708 -50 569 -120 569 -212 c 256
 569 -280 631 -306 699 -306 c 256
 756 -306 806 -288 850 -271 c 257
 850 -392 l 257
 799 -413 744 -424 687 -424 c 256
 546 -424 414 -385 414 -244 c 256
EndSplineSet
EndChar

StartChar: one
Encoding: 18 49 264
Width: 1229
VWidth: 0
Flags: HW
LayerCount: 2
Fore
SplineSet
1075 0 m 257
 238 0 l 257
 238 146 l 257
 574 146 l 257
 574 1290 l 257
 471 1232 352 1150 237 1106 c 257
 237 1287 l 257
 368 1341 464 1415 573 1492 c 257
 761 1492 l 257
 761 146 l 257
 1075 146 l 257
 1075 0 l 257
EndSplineSet
EndChar

StartChar: onehalf
Encoding: 125 189 265
Width: 1229
VWidth: 0
Flags: HW
LayerCount: 2
Fore
SplineSet
171 1381 m 257
 116 1353 61 1329 2 1306 c 257
 3 1447 l 257
 71 1470 131 1498 188 1533 c 257
 304 1549 l 257
 304 781 l 257
 440 781 l 257
 440 656 l 257
 36 656 l 257
 36 785 l 257
 171 785 l 257
 171 1381 l 257
323 1 m 257
 157 1 l 257
 1160 1560 l 257
 1323 1560 l 257
 323 1 l 257
1207 881 m 256
 1381 881 1521 809 1521 635 c 256
 1521 509 1444 410 1377 337 c 256
 1302 254 1199 171 1117 101 c 257
 1520 101 l 257
 1520 -26 l 257
 914 -26 l 257
 914 94 l 257
 1062 229 1247 372 1351 550 c 256
 1369 581 1378 608 1378 632 c 257
 1380 632 l 257
 1380 717 1309 754 1224 754 c 256
 1118 754 1054 686 1017 612 c 257
 924 697 l 257
 968 795 1067 881 1207 881 c 256
EndSplineSet
EndChar

StartChar: onequarter
Encoding: 124 188 266
Width: 1229
VWidth: 0
Flags: HW
LayerCount: 2
Fore
SplineSet
1353 361 m 257
 1353 431 1352 500 1352 570 c 256
 1352 622 1353 673 1354 725 c 257
 1091 361 l 257
 1353 361 l 257
191 1381 m 257
 136 1352 80 1326 23 1306 c 257
 24 1447 l 257
 88 1468 149 1497 209 1533 c 257
 326 1549 l 257
 326 781 l 257
 461 781 l 257
 461 656 l 257
 57 656 l 257
 57 785 l 257
 191 785 l 257
 191 1381 l 257
409 1 m 257
 242 1 l 257
 1244 1560 l 257
 1408 1560 l 257
 409 1 l 257
1354 245 m 257
 936 245 l 257
 936 345 l 257
 1340 906 l 257
 1490 906 l 257
 1490 361 l 257
 1610 361 l 257
 1621 245 l 257
 1487 245 l 257
 1487 1 l 257
 1354 41 l 257
 1354 245 l 257
EndSplineSet
EndChar

StartChar: ordfeminine
Encoding: 106 170 267
Width: 1229
VWidth: 0
Flags: HW
LayerCount: 2
Fore
SplineSet
580 945 m 256
 718 945 798 1041 798 1178 c 258
 798 1205 l 257
 670 1182 429 1208 429 1061 c 256
 429 973 493 945 580 945 c 256
327 1466 m 257
 383 1560 493 1604 641 1604 c 256
 824 1604 945 1523 945 1340 c 256
 945 1254 941 1170 941 1086 c 256
 941 1008 944 930 951 853 c 257
 806 853 l 257
 799 933 l 257
 747 868 664 834 555 834 c 256
 406 834 276 909 276 1058 c 256
 276 1306 576 1286 797 1315 c 257
 797 1441 760 1486 633 1486 c 256
 527 1486 446 1452 401 1384 c 257
 327 1466 l 257
EndSplineSet
EndChar

StartChar: ordmasculine
Encoding: 122 186 268
Width: 1229
VWidth: 0
Flags: HW
LayerCount: 2
Fore
SplineSet
684 950 m 256
 837 950 927 1062 927 1214 c 256
 927 1376 845 1486 681 1486 c 256
 522 1486 437 1375 437 1218 c 256
 437 1059 523 950 684 950 c 256
684 833 m 256
 440 833 281 977 281 1220 c 256
 281 1456 444 1602 682 1602 c 256
 926 1602 1080 1459 1080 1217 c 256
 1080 982 921 833 684 833 c 256
EndSplineSet
EndChar

StartChar: oslash
Encoding: 184 248 269
Width: 1229
VWidth: 0
Flags: HW
AnchorPoint: "top" 615 1097 basechar 0
LayerCount: 2
Fore
SplineSet
322 -283 m 257
 210 -242 l 257
 338.347 52.2935 l 257
 192.348 151.794 118 337.513 118 551 c 256
 118 897 319 1130 615 1130 c 256
 681.956 1130 742.161 1119.77 795.59 1100.73 c 257
 920 1386 l 257
 1032 1351 l 257
 899.852 1046.87 l 257
 1039.68 948.027 1110 769.536 1110 558 c 256
 1110 210 905 -25 607 -25 c 256
 547.644 -25 493.589 -16.3212 444.893 -0.173657 c 257
 322 -283 l 257
508.652 146.563 m 257
 539.448 135.219 574.132 129 613 129 c 256
 848 129 927 342 927 553 c 256
 927 676.895 899.85 802.183 829.122 884.095 c 257
 508.652 146.563 l 257
408.579 213.334 m 257
 731.987 954.894 l 257
 697.767 969.118 658.294 977 613 977 c 256
 385 977 301 757 301 550 c 256
 301 423.624 332.309 294.639 408.579 213.334 c 257
EndSplineSet
EndChar

StartChar: p
Encoding: 81 112 271
Width: 1229
VWidth: 0
Flags: HW
PickledData: "(dp1
S'com.typemytype.robofont.layerData'
p2
(dp3
s."
LayerCount: 2
Fore
SplineSet
339 555 m 256
 339 319 406 115 647 115 c 256
 876 115 924 341 924 555 c 256
 924 779 877 990 644 990 c 256
 402 990 339 797 339 555 c 256
669.869 -25.095 m 256
 495.398 -25.095 392 83 341 175 c 257
 341 -421 l 257
 159 -441 l 257
 159 1097 l 257
 341 1097 l 257
 341 946 l 257
 399 1046 503 1130 659 1130 c 256
 968 1130 1107 879 1107 568 c 256
 1107 251.384 975.819 -25.095 669.869 -25.095 c 256
EndSplineSet
EndChar

StartChar: paragraph
Encoding: 118 182 272
Width: 1229
VWidth: 0
Flags: HW
LayerCount: 2
Fore
SplineSet
66 1227 m 256
 66 1514 350 1575 637 1575 c 258
 1065 1575 l 257
 1065 1441 l 257
 969 1441 l 257
 969 -160 l 257
 825 -160 l 257
 825 1441 l 257
 595 1441 l 257
 595 -160 l 257
 438 -160 l 257
 438 853 l 257
 222 856 66 1010 66 1227 c 256
EndSplineSet
EndChar

StartChar: parenleft
Encoding: 9 40 273
Width: 1229
VWidth: 0
Flags: HW
LayerCount: 2
Fore
SplineSet
383 772 m 256
 383 1157 509 1462 685 1705 c 257
 861 1705 l 257
 671 1405 577 1097 577 781 c 256
 577 400 699 110 863 -152 c 257
 688 -152 l 257
 508 88 383 388 383 772 c 256
EndSplineSet
EndChar

StartChar: parenright
Encoding: 10 41 274
Width: 1229
VWidth: 0
Flags: HW
LayerCount: 2
Fore
SplineSet
815 772 m 256
 815 388 690 88 510 -152 c 257
 334 -152 l 257
 498 110 620 400 620 781 c 256
 620 1097 526 1405 336 1705 c 257
 513 1705 l 257
 689 1462 815 1157 815 772 c 256
EndSplineSet
EndChar

StartChar: partialdiff
Encoding: 346 8706 275
Width: 1229
VWidth: 0
Flags: HW
LayerCount: 2
Fore
SplineSet
1011 712 m 257
 963 847 871 943 693 943 c 256
 440 943 309 702 309 453 c 256
 309 263 397 120 589 120 c 256
 871 120 982 463 1011 712 c 257
667 1519 m 256
 539 1519 433 1470 350 1416 c 257
 339 1566 l 257
 428 1623 541 1664 678 1664 c 256
 1064 1664 1215 1346 1215 962 c 256
 1215 450 1026 -26 573 -26 c 256
 282 -26 121 167 121 455 c 256
 121 827 356 1088 677 1088 c 256
 841 1088 952 1006 1027 907 c 257
 1028 989 l 257
 1028 1258 936 1519 667 1519 c 256
EndSplineSet
EndChar

StartChar: percent
Encoding: 6 37 276
Width: 1229
VWidth: 0
Flags: HW
LayerCount: 2
Fore
SplineSet
330 1457 m 256
 216 1457 193 1345 193 1228 c 256
 193 1110 214 1004 329 1004 c 256
 440 1004 465 1118 465 1232 c 256
 465 1349 442 1457 330 1457 c 256
1125 1018 m 257
 201 465 l 257
 140 567 l 257
 1064 1124 l 257
 1125 1018 l 257
333 1571 m 256
 522 1571 589 1425 589 1232 c 256
 589 1023 494 890 325 890 c 256
 136 890 66 1038 66 1228 c 256
 66 1422 142 1571 333 1571 c 256
907 662 m 256
 1096 662 1163 516 1163 323 c 256
 1163 114 1068 -19 899 -19 c 256
 710 -19 640 129 640 319 c 256
 640 513 716 662 907 662 c 256
904 548 m 256
 790 548 767 436 767 319 c 256
 767 201 788 95 903 95 c 256
 1014 95 1039 209 1039 323 c 256
 1039 440 1016 548 904 548 c 256
EndSplineSet
EndChar

StartChar: period
Encoding: 15 46 277
Width: 1229
VWidth: 0
Flags: HW
LayerCount: 2
Fore
SplineSet
764 0 m 257
 463 0 l 257
 463 301 l 257
 764 301 l 257
 764 0 l 257
EndSplineSet
EndChar

StartChar: periodcentered
Encoding: 119 183 278
Width: 1229
VWidth: 0
Flags: HW
LayerCount: 2
Fore
SplineSet
487 557 m 257
 487 785 l 257
 728 785 l 257
 728 557 l 257
 487 557 l 257
EndSplineSet
EndChar

StartChar: perthousand
Encoding: 340 8240 279
Width: 1229
VWidth: 0
Flags: HW
LayerCount: 2
Fore
SplineSet
379 1449 m 256
 236 1449 167 1331 167 1189 c 256
 167 1040 231 926 382 926 c 256
 527 926 593 1044 593 1187 c 256
 593 1337 531 1449 379 1449 c 256
1438 355 m 256
 1438 505 1375 616 1224 616 c 256
 1077 616 1009 501 1009 356 c 257
 1011 356 l 257
 1011 205 1072 93 1225 93 c 256
 1369 93 1438 212 1438 355 c 256
2094 93 m 256
 2240 93 2307 210 2307 355 c 257
 2310 355 l 257
 2310 505 2246 616 2094 616 c 256
 1948 616 1880 501 1880 356 c 256
 1880 204 1941 93 2094 93 c 256
1234 1559 m 257
 1399 1559 l 257
 365 -22 l 257
 195 -22 l 257
 1234 1559 l 257
379 1571 m 256
 619 1571 752 1424 752 1186 c 256
 752 953 610 804 376 804 c 256
 137 804 4 951 4 1188 c 256
 4 1420 145 1571 379 1571 c 256
1225 740 m 256
 1465 740 1595 591 1595 353 c 256
 1595 122 1453 -30 1221 -30 c 256
 982 -30 848 119 848 356 c 256
 848 588 992 740 1225 740 c 256
2097 740 m 256
 2337 740 2468 592 2468 353 c 256
 2468 122 2325 -30 2093 -30 c 256
 1854 -30 1721 118 1721 356 c 256
 1721 589 1863 740 2097 740 c 256
EndSplineSet
EndChar

StartChar: plus
Encoding: 12 43 280
Width: 1229
VWidth: 0
Flags: HW
LayerCount: 2
Fore
SplineSet
652 1286 m 257
 814 1286 l 257
 814 827 l 257
 1311 827 l 257
 1311 676 l 257
 813 676 l 257
 813 217 l 257
 648 217 l 257
 648 676 l 257
 152 676 l 257
 152 827 l 257
 652 827 l 257
 652 1286 l 257
EndSplineSet
EndChar

StartChar: plusminus
Encoding: 113 177 281
Width: 1229
VWidth: 0
Flags: HW
LayerCount: 2
Fore
SplineSet
152 150 m 257
 1312 150 l 257
 1312 0 l 257
 152 0 l 257
 152 150 l 257
644 1201 m 257
 810 1201 l 257
 810 795 l 257
 1309 795 l 257
 1309 645 l 257
 813 645 l 257
 813 242 l 257
 647 242 l 257
 647 645 l 257
 152 645 l 257
 152 795 l 257
 644 795 l 257
 644 1201 l 257
EndSplineSet
EndChar

StartChar: product
Encoding: 348 8719 282
Width: 1229
VWidth: 0
Flags: HW
LayerCount: 2
Fore
SplineSet
1503 1388 m 257
 1503 -358 l 257
 1306 -358 l 257
 1306 1388 l 257
 506 1388 l 257
 506 -358 l 257
 312 -358 l 257
 312 1388 l 257
 174 1388 l 257
 156 1545 l 257
 1647 1545 l 257
 1629 1388 l 257
 1503 1388 l 257
EndSplineSet
EndChar

StartChar: q
Encoding: 82 113 283
Width: 1229
VWidth: 0
Flags: HW
PickledData: "(dp1
S'com.typemytype.robofont.layerData'
p2
(dp3
s."
LayerCount: 2
Fore
SplineSet
907 555 m 256
 907 797 835 990 586 990 c 256
 348 990 289 779 289 555 c 256
 289 341 356 115 586 115 c 256
 827 115 907 319 907 555 c 256
907 920 m 257
 907 1097 l 257
 1089 1097 l 257
 1089 -421 l 257
 909 -441 l 257
 909 180 l 257
 853 71 733 -25 564 -25 c 256
 245 -25 106 248 106 568 c 256
 106 879 256 1130 565 1130 c 256
 741 1130 838 1040 907 920 c 257
EndSplineSet
EndChar

StartChar: question
Encoding: 32 63 284
Width: 1229
VWidth: 0
Flags: HW
LayerCount: 2
Fore
SplineSet
328 -12 m 257
 328 216 l 257
 570 216 l 257
 570 -12 l 257
 328 -12 l 257
959 1231 m 256
 959 924.77 523 805.837 523 556 c 256
 523 501 533 447 542 400 c 257
 360 400 l 257
 353 455 349 512 349 569 c 257
 348 570 l 257
 348 789 552 880 663 993 c 256
 719 1050 773 1117 773 1222 c 256
 773 1392 616 1451 447 1451 c 256
 337 1451 244 1418 168 1377 c 257
 168 1535 l 257
 246 1572 338 1606 447 1606 c 256
 725 1606 959 1509 959 1231 c 256
EndSplineSet
EndChar

StartChar: questiondown
Encoding: 127 191 285
Width: 1229
VWidth: 0
Flags: HW
LayerCount: 2
Fore
SplineSet
799 1604 m 257
 799 1376 l 257
 557 1376 l 257
 557 1604 l 257
 799 1604 l 257
168 361 m 256
 168 669.388 604 784.555 604 1037 c 256
 604 1092 595 1146 586 1193 c 257
 767 1193 l 257
 774 1136 778 1080 778 1024 c 257
 779 1023 l 257
 779 805 576 712 465 600 c 256
 409 544 355 475 355 371 c 256
 355 199 509 142 680 142 c 256
 790 142 883 175 959 216 c 257
 959 58 l 257
 882 21 788 -13 680 -13 c 256
 403 -13 168 84 168 361 c 256
EndSplineSet
EndChar

StartChar: quotedbl
Encoding: 3 34 286
Width: 1229
VWidth: 0
Flags: HW
PickledData: "(dp1
S'com.typemytype.robofont.layerData'
p2
(dp3
s."
LayerCount: 2
Fore
SplineSet
936 1584 m 257
 885 870 l 257
 765 870 l 257
 718 1584 l 257
 936 1584 l 257
516 1584 m 257
 465 870 l 257
 343 870 l 257
 293 1584 l 257
 516 1584 l 257
EndSplineSet
EndChar

StartChar: quotedblbase
Encoding: 335 8222 287
Width: 1229
VWidth: 0
Flags: HW
LayerCount: 2
Fore
SplineSet
958 218 m 257
 787 -258 l 257
 641 -258 l 257
 755 218 l 257
 958 218 l 257
561 218 m 257
 391 -258 l 257
 244 -258 l 257
 360 218 l 257
 561 218 l 257
EndSplineSet
EndChar

StartChar: quotedblleft
Encoding: 333 8220 288
Width: 1229
VWidth: 0
Flags: HW
LayerCount: 2
Fore
SplineSet
233 1110 m 257
 404 1588 l 257
 551 1588 l 257
 435 1110 l 257
 233 1110 l 257
620 1110 m 257
 790 1588 l 257
 938 1588 l 257
 822 1110 l 257
 620 1110 l 257
EndSplineSet
EndChar

StartChar: quotedblright
Encoding: 334 8221 289
Width: 1229
VWidth: 0
Flags: HW
LayerCount: 2
Fore
SplineSet
913 1588 m 257
 742 1110 l 257
 595 1110 l 257
 712 1588 l 257
 913 1588 l 257
550 1588 m 257
 380 1110 l 257
 233 1110 l 257
 349 1588 l 257
 550 1588 l 257
EndSplineSet
EndChar

StartChar: quoteleft
Encoding: 330 8216 290
Width: 1229
VWidth: 0
Flags: HW
LayerCount: 2
Fore
SplineSet
446 1110 m 257
 617 1588 l 257
 762 1588 l 257
 647 1110 l 257
 446 1110 l 257
EndSplineSet
EndChar

StartChar: quoteright
Encoding: 331 8217 291
Width: 1229
VWidth: 0
Flags: HW
LayerCount: 2
Fore
SplineSet
761 1588 m 257
 592 1110 l 257
 446 1110 l 257
 563 1588 l 257
 761 1588 l 257
EndSplineSet
EndChar

StartChar: quotesinglbase
Encoding: 332 8218 292
Width: 1229
VWidth: 0
Flags: HW
LayerCount: 2
Fore
SplineSet
773 218 m 257
 604 -258 l 257
 457 -258 l 257
 574 218 l 257
 773 218 l 257
EndSplineSet
EndChar

StartChar: quotesingle
Encoding: 8 39 293
Width: 1229
VWidth: 0
Flags: HW
LayerCount: 2
Fore
SplineSet
558 969 m 257
 496 1580 l 257
 755 1580 l 257
 700 969 l 257
 558 969 l 257
EndSplineSet
EndChar

StartChar: r
Encoding: 83 114 294
Width: 1229
VWidth: 0
Flags: HW
PickledData: "(dp1
S'com.typemytype.robofont.layerData'
p2
(dp3
s."
AnchorPoint: "bottom" 615 0 basechar 0
AnchorPoint: "top" 615 1097 basechar 0
LayerCount: 2
Fore
SplineSet
543 0 m 257
 361 0 l 257
 361 1097 l 257
 510 1097 l 257
 525 894 l 257
 616 1051 767 1130 948 1130 c 258
 1029 1130 l 257
 1029 961 l 257
 922 961 l 258
 698 961 543 853 543 610 c 258
 543 0 l 257
EndSplineSet
EndChar

StartChar: radical
Encoding: 351 8730 296
Width: 1229
VWidth: 0
Flags: HW
LayerCount: 2
Fore
SplineSet
668 45 m 257
 805 620 974 1170 1125 1732 c 257
 1269 1732 l 257
 753 -166 l 257
 603 -166 l 257
 236 749 l 257
 45 719 l 257
 23 840 l 257
 350 896 l 257
 460 617 577 339 668 45 c 257
EndSplineSet
EndChar

StartChar: registered
Encoding: 110 174 299
Width: 1229
VWidth: 0
Flags: HW
LayerCount: 2
Fore
SplineSet
853 848 m 257
 880.787 848 l 258
 1024.88 848 1160 852.398 1160 999 c 256
 1160 1123 1075 1162 954 1162 c 258
 715 1162 l 257
 715 848 l 257
 853 848 l 257
1167 296 m 257
 1083 438 1000 625 869 721 c 257
 718 721 l 257
 718 296 l 257
 554 296 l 257
 554 1294 l 257
 855 1294 l 257
 854 1293 l 257
 1089 1293 1331 1248 1331 1014 c 256
 1331 842 1194 758 1038 740 c 257
 1166 618 1257 449 1353 296 c 257
 1167 296 l 257
146 788 m 256
 146 315 554 90 928 90 c 256
 1371 90 1650 422 1650 761 c 256
 1650 1223 1283 1482 922 1482 c 256
 449 1482 146 1179 146 788 c 256
1793 785 m 257
 1793 431 1588 199 1353 74 c 256
 1232 10 1081 -37 904 -37 c 256
 536 -37 274 139 129 366 c 256
 58 477 6 615 6 786 c 256
 6 1141 215 1371 449 1497 c 256
 570 1562 720 1608 898 1608 c 256
 1266 1608 1524 1430 1669 1203 c 256
 1739 1093 1792 954 1792 785 c 257
 1793 785 l 257
EndSplineSet
EndChar

StartChar: ring
Encoding: 323 730 300
Width: 1229
VWidth: 0
Flags: HW
AnchorPoint: "top" 623.5 1100 mark 0
LayerCount: 2
Fore
SplineSet
852 1455 m 256
 852 1333 744 1247 622 1247 c 256
 495 1247 387 1329 387 1455 c 256
 387 1581 494 1661 621 1661 c 256
 745 1661 852 1579 852 1455 c 256
632 1568 m 256
 557 1568 497 1529 497 1454 c 256
 497 1393 541 1340 603 1340 c 256
 679 1340 743 1379 743 1456 c 256
 743 1516 693 1568 632 1568 c 256
EndSplineSet
EndChar

StartChar: s
Encoding: 84 115 301
Width: 1229
VWidth: 0
Flags: HW
PickledData: "(dp1
S'com.typemytype.robofont.layerData'
p2
(dp3
s."
AnchorPoint: "bottom" 620 0 basechar 0
AnchorPoint: "top" 620 1097 basechar 0
LayerCount: 2
Fore
SplineSet
1028 296 m 256
 1028 89 853 -25 642 -25 c 256
 478 -25 316 24 249 74 c 257
 324 195 l 257
 365 169 467 117 619 117 c 256
 764 117 866 184 866 301 c 256
 866 371 840 436 705 469 c 258
 519 515 l 258
 297 569 252 680 252 816 c 256
 252 970 374 1128 614 1130 c 257
 627 1130 l 258
 765 1130 884 1099 966 1055 c 257
 905 937 l 257
 846 962 750 998 631 998 c 256
 512 997 418 937 418 824 c 256
 418 756 440 701 562 670 c 258
 753 622 l 258
 933 577 1028 481 1028 296 c 256
EndSplineSet
EndChar

StartChar: section
Encoding: 103 167 307
Width: 1229
VWidth: 0
Flags: HW
LayerCount: 2
Fore
SplineSet
692 594 m 257
 755 631 849 689 849 786 c 256
 849 909 668 949 586 991 c 257
 521 957 439 902 439 806 c 256
 439 681 603 631 692 594 c 257
960 1416 m 257
 889 1447 807 1473 711 1473 c 256
 594 1473 473 1448 473 1330 c 256
 473 1180 651 1134 760 1089 c 256
 886 1036 1047 976 1047 800 c 256
 1047 659 933 577 842 522 c 257
 932 476 1021 401 1021 274 c 256
 1021 48 797 -52 572 -52 c 256
 457 -52 359 -31 273 5 c 257
 272 166 l 257
 354 128 453 97 566 97 c 256
 692 97 829 138 829 264 c 256
 829 399 635 440 536 481 c 256
 402 536 244 606 244 793 c 256
 244 935 355 1010 451 1060 c 257
 362 1112 283 1185 283 1315 c 256
 283 1541 480 1621 706 1621 c 256
 798 1621 884 1598 959 1576 c 257
 960 1416 l 257
EndSplineSet
EndChar

StartChar: semicolon
Encoding: 28 59 308
Width: 1229
VWidth: 0
Flags: HW
LayerCount: 2
Fore
SplineSet
778 838 m 257
 479 838 l 257
 479 1139 l 257
 778 1139 l 257
 778 838 l 257
410 -313 m 257
 486 286 l 257
 758 286 l 257
 590 -313 l 257
 410 -313 l 257
EndSplineSet
EndChar

StartChar: seven
Encoding: 24 55 309
Width: 1229
VWidth: 0
Flags: HW
LayerCount: 2
Fore
SplineSet
143 1323 m 257
 143 1492 l 257
 1028 1492 l 257
 1028 1347 l 257
 604 0 l 257
 372 0 l 257
 790 1323 l 257
 143 1323 l 257
EndSplineSet
EndChar

StartChar: six
Encoding: 23 54 310
Width: 1229
VWidth: 0
Flags: HW
LayerCount: 2
Fore
SplineSet
638.059 128.994 m 256
 809.501 128.994 922 267.505 922 445 c 256
 922 618 823 765 650 765 c 256
 452 765 352 615 352 437 c 256
 352 263.641 463.177 128.994 638.059 128.994 c 256
640 -26 m 256
 333 -26 154 167 154 472 c 256
 154 663 224.939 824.441 318 938 c 258
 772 1492 l 257
 1014 1492 l 257
 474 852 l 257
 525 884 611 911 690 911 c 256
 952 911 1114 711 1114 449 c 256
 1114 149 885 -26 640 -26 c 256
EndSplineSet
EndChar

StartChar: slash
Encoding: 16 47 311
Width: 1229
VWidth: 0
Flags: HW
LayerCount: 2
Fore
SplineSet
887 1585 m 257
 1084 1585 l 257
 375 -224 l 257
 184 -224 l 257
 887 1585 l 257
EndSplineSet
EndChar

StartChar: sterling
Encoding: 99 163 313
Width: 1229
VWidth: 0
Flags: HW
LayerCount: 2
Fore
SplineSet
1038 0 m 257
 120 0 l 257
 119 150 l 257
 236 215 321 300 321 478 c 258
 321 756 l 257
 119 756 l 257
 119 903 l 257
 320 903 l 257
 315 945 313 986 313 1026 c 256
 313 1344 410 1572 744 1572 c 256
 896 1572 964 1528 1018 1473 c 257
 960 1343 l 257
 919 1381 867 1418 751 1418 c 256
 541.99 1418 504 1253 504 1028 c 257
 508 903 l 257
 874 903 l 257
 874 756 l 257
 511 756 l 257
 511 605 l 258
 511 421 501 231 401 153 c 257
 1038 153 l 257
 1038 0 l 257
EndSplineSet
EndChar

StartChar: summation
Encoding: 349 8721 314
Width: 1229
VWidth: 0
Flags: HW
LayerCount: 2
Fore
SplineSet
74 -358 m 257
 74 -260 l 257
 783 599 l 257
 100 1442 l 257
 100 1545 l 257
 1311 1545 l 257
 1311 1391 l 257
 371 1391 l 257
 1005 609 l 257
 336 -197 l 257
 1362 -197 l 257
 1362 -358 l 257
 74 -358 l 257
EndSplineSet
EndChar

StartChar: t
Encoding: 85 116 315
Width: 1229
VWidth: 0
Flags: HW
PickledData: "(dp1
S'com.typemytype.robofont.layerData'
p2
(dp3
s."
AnchorPoint: "bottom" 711 0 basechar 0
AnchorPoint: "center" 501 569 basechar 0
LayerCount: 2
Fore
SplineSet
589 957 m 257
 589 442 l 258
 589 223 617 142 779 138 c 257
 1030 138 l 257
 1030 -3 l 257
 754 -3 l 258
 462 -3 407 158.836642544 407 488 c 258
 407 957 l 257
 97 957 l 257
 117 1097 l 257
 407 1097 l 257
 407 1475 l 257
 589 1529 l 257
 589 1097 l 257
 1030 1097 l 257
 1030 957 l 257
 589 957 l 257
EndSplineSet
EndChar

StartChar: tbar
Encoding: 290 359 316
Width: 1229
VWidth: 0
Flags: HW
LayerCount: 2
Fore
SplineSet
200 580 m 257
 200 720 l 257
 401 720 l 257
 401 957 l 257
 91 957 l 257
 111 1097 l 257
 401 1097 l 257
 401 1475 l 257
 583 1529 l 257
 583 1097 l 257
 1045 1097 l 257
 1045 957 l 257
 583 957 l 257
 583 720 l 257
 879 720 l 257
 879 580 l 257
 583 580 l 257
 583 442 l 258
 583 195 632 140 853 140 c 258
 1054 140 l 257
 1044 0 l 257
 860 0 l 258
 467 0 401 118 401 488 c 258
 401 580 l 257
 200 580 l 257
EndSplineSet
EndChar

StartChar: thorn
Encoding: 190 254 319
Width: 1229
VWidth: 0
Flags: HW
LayerCount: 2
Fore
SplineSet
1048 565 m 256
 1048 816 953 996 699 996 c 256
 434 996 340 798 340 536 c 256
 340 299 455 118 695 118 c 256
 941 118 1048 321 1048 565 c 256
342 957 m 257
 425 1065 545 1141 723 1141 c 256
 1063 1141 1246 908 1246 572 c 257
 1245 572 l 257
 1245 215 1029 -25 728 -25 c 256
 553 -25 426 44 341 146 c 257
 341 -464 l 257
 158 -464 l 257
 158 1580 l 257
 342 1580 l 257
 342 957 l 257
EndSplineSet
EndChar

StartChar: three
Encoding: 20 51 320
Width: 1229
VWidth: 0
Flags: HW
LayerCount: 2
Fore
SplineSet
577 157 m 256
 768 157 895 250 895 432 c 256
 895 640 695 704 483 705 c 257
 373 705 l 257
 373 883 l 257
 483 885 l 258
 681 888 844 931 844 1128 c 256
 844 1269 747 1349 573 1349 c 256
 426 1349 312 1292 232 1221 c 257
 163 1382 l 257
 267 1470 410 1516 597 1516 c 256
 867 1516 1065 1375 1065 1143 c 256
 1065 938 907 843 739 803 c 257
 927 770 1120 652 1120 413 c 256
 1120 111 871 -12 567 -12 c 256
 399 -12 255 43 161 113 c 257
 231 273 l 257
 293 219 432 157 577 157 c 256
EndSplineSet
EndChar

StartChar: threequarters
Encoding: 126 190 321
Width: 1229
VWidth: 0
Flags: HW
LayerCount: 2
Fore
SplineSet
1381 363 m 257
 1381 509 l 258
 1381 582 1381 654 1383 726 c 257
 1119 363 l 257
 1381 363 l 257
86 846 m 257
 135 802 200 761 287 761 c 257
 287 760 l 257
 390 760 480 804 480 907 c 256
 480 1026 362 1053 243 1053 c 257
 181 1051 l 257
 181 1181 l 257
 310 1181 453 1182 453 1312 c 256
 453 1403 389 1434 298 1434 c 256
 209 1434 138 1391 85 1350 c 257
 20 1454 l 257
 87 1517 178 1564 300 1564 c 256
 467 1564 600 1472 600 1306 c 256
 600 1223 560 1161 481 1120 c 257
 565 1084 624 1016 624 905 c 256
 624 731 467 636 292 636 c 256
 174 636 85 679 20 741 c 257
 86 846 l 257
457 -1 m 257
 290 -1 l 257
 1293 1558 l 257
 1457 1558 l 257
 457 -1 l 257
1383 248 m 257
 965 248 l 257
 965 346 l 257
 1368 909 l 257
 1518 909 l 257
 1518 363 l 257
 1639 363 l 257
 1650 248 l 257
 1516 248 l 257
 1516 -1 l 257
 1383 44 l 257
 1383 248 l 257
EndSplineSet
EndChar

StartChar: tilde
Encoding: 325 732 322
Width: 1229
VWidth: 0
Flags: HW
AnchorPoint: "top" 645.5 1097 mark 0
LayerCount: 2
Fore
SplineSet
1037 1536 m 257
 1030 1397 961 1289 814 1289 c 256
 672 1289 622 1405 483 1405 c 256
 420 1405 393 1362 391 1303 c 257
 254 1303 l 257
 257 1451 336 1548 488 1548 c 256
 633 1548 677 1431 818 1431 c 256
 876 1431 895 1482 899 1536 c 257
 1037 1536 l 257
EndSplineSet
EndChar

StartChar: trademark
Encoding: 345 8482 323
Width: 1229
VWidth: 0
Flags: HW
LayerCount: 2
Fore
SplineSet
605 1466 m 257
 366 1466 l 257
 366 745 l 257
 231 745 l 257
 231 1466 l 257
 0 1466 l 257
 0 1575 l 257
 605 1575 l 257
 605 1466 l 257
1062 1201 m 257
 1224 1575 l 257
 1398 1575 l 257
 1398 745 l 257
 1262 745 l 257
 1262 1391 l 257
 1111 1016 l 257
 1022 1016 l 257
 863 1390 l 257
 863 745 l 257
 728 745 l 257
 728 1575 l 257
 914 1575 l 257
 1062 1201 l 257
EndSplineSet
EndChar

StartChar: two
Encoding: 19 50 324
Width: 1229
VWidth: 0
Flags: HW
PickledData: "(dp1
S'com.typemytype.robofont.layerData'
p2
(dp3
s."
LayerCount: 2
Fore
SplineSet
193 1395 m 257
 290 1474 391 1516 554 1516 c 256
 839 1516 993 1341 993 1088 c 256
 993 857 844 682 738 552 c 258
 402 146 l 257
 996 146 l 257
 996 0 l 257
 203 0 l 257
 203 191 l 257
 629 723 l 258
 706 819 795 941 795 1083 c 256
 795 1247 712 1341 556 1341 c 256
 414 1341 339 1297 259 1239 c 257
 193 1395 l 257
EndSplineSet
EndChar

StartChar: u
Encoding: 86 117 325
Width: 1229
VWidth: 0
Flags: HW
PickledData: "(dp1
S'com.typemytype.robofont.layerData'
p2
(dp3
s."
AnchorPoint: "top" 615 1097 basechar 0
LayerCount: 2
Fore
SplineSet
615 -25 m 256
 349 -25 191 91 191 356 c 258
 191 1097 l 257
 373 1097 l 257
 373 340 l 258
 373 183 448 115 615 115 c 256
 782 115 857 183 857 340 c 258
 857 1097 l 257
 1039 1097 l 257
 1039 356 l 258
 1039 91 881 -25 615 -25 c 256
EndSplineSet
EndChar

StartChar: underscore
Encoding: 64 95 333
Width: 1229
VWidth: 0
Flags: HW
LayerCount: 2
Fore
SplineSet
4 -296 m 257
 4 -157 l 257
 1076 -157 l 257
 1076 -296 l 257
 4 -296 l 257
EndSplineSet
EndChar

StartChar: uni00B2
Encoding: 114 178 337
Width: 1229
VWidth: 0
Flags: HW
LayerCount: 2
Fore
SplineSet
604 1564 m 256
 776 1564 916 1489 916 1317 c 256
 916 1191 839 1093 772 1020 c 256
 697 937 596 854 514 784 c 257
 915 784 l 257
 915 656 l 257
 312 656 l 257
 312 776 l 257
 459 910 644 1056 747 1233 c 256
 765 1264 774 1291 774 1315 c 257
 775 1315 l 257
 775 1399 705 1436 621 1436 c 256
 514 1436 450 1369 414 1294 c 257
 319 1378 l 257
 363 1477 464 1564 604 1564 c 256
EndSplineSet
EndChar

StartChar: uni00B3
Encoding: 115 179 338
Width: 1229
VWidth: 0
Flags: HW
LayerCount: 2
Fore
SplineSet
379 846 m 257
 427 802 494 761 580 761 c 257
 580 760 l 257
 683 760 773 804 773 907 c 256
 773 1026 654 1053 535 1053 c 257
 473 1051 l 257
 473 1181 l 257
 602 1181 746 1182 746 1312 c 256
 746 1403 681 1434 590 1434 c 256
 501 1434 430 1391 377 1350 c 257
 313 1454 l 257
 380 1516 472 1564 593 1564 c 256
 760 1564 893 1472 893 1306 c 256
 893 1211 841 1156 774 1120 c 257
 857 1084 916 1016 916 905 c 256
 916 731 761 636 586 636 c 256
 468 636 377 679 313 741 c 257
 379 846 l 257
EndSplineSet
EndChar

StartChar: uni00B5
Encoding: 117 181 339
Width: 1229
VWidth: 0
Flags: HW
LayerCount: 2
Fore
SplineSet
378 48.8887 m 257
 378 -295 l 257
 196 -295 l 257
 196 1097 l 257
 378 1097 l 257
 378 420.683 l 258
 378 254.172 383.402 107 601 107 c 256
 739 107 872 199 872 355 c 258
 872 1097 l 257
 1054 1097 l 257
 1054 0 l 257
 887 0 l 257
 877 119 l 257
 814 37.3684 704 -22 537 -22 c 256
 474.238 -22 421.63 2.71567 378 48.8887 c 257
EndSplineSet
EndChar

StartChar: uni00B9
Encoding: 121 185 340
Width: 1229
VWidth: 0
Flags: HW
LayerCount: 2
Fore
SplineSet
564 1381 m 257
 509 1353 455 1329 396 1306 c 257
 397 1447 l 257
 466 1470 524 1498 582 1533 c 257
 698 1549 l 257
 698 781 l 257
 833 781 l 257
 833 656 l 257
 430 656 l 257
 430 785 l 257
 564 785 l 257
 564 1381 l 257
EndSplineSet
EndChar

StartChar: uni2206
Encoding: 347 8710 341
Width: 1229
VWidth: 0
Flags: HW
LayerCount: 2
Fore
SplineSet
1035 176 m 257
 893 555 722 918 607 1322 c 257
 480 933 327 556 189 176 c 257
 1035 176 l 257
-62 0 m 257
 -62 87 l 257
 514 1552 l 257
 715 1552 l 257
 1291 87 l 257
 1291 0 l 257
 -62 0 l 257
EndSplineSet
EndChar

StartChar: v
Encoding: 87 118 345
Width: 1229
VWidth: 0
Flags: HW
PickledData: "(dp1
S'com.typemytype.robofont.layerData'
p2
(dp3
s."
LayerCount: 2
Fore
SplineSet
617 164 m 257
 730 471 823 787 931 1097 c 257
 1133 1097 l 257
 714 0 l 257
 511 0 l 257
 93 1097 l 257
 297 1097 l 257
 617 164 l 257
EndSplineSet
EndChar

StartChar: w
Encoding: 88 119 346
Width: 1229
VWidth: 0
Flags: HW
PickledData: "(dp1
S'com.typemytype.robofont.layerData'
p2
(dp3
s."
AnchorPoint: "top" 615 1097 basechar 0
LayerCount: 2
Fore
SplineSet
432 0 m 257
 246 0 l 257
 32 1097 l 257
 215 1097 l 257
 346 194 l 257
 521 1097 l 257
 738 1097 l 257
 909 197 l 257
 1024 1097 l 257
 1196 1097 l 257
 995 0 l 257
 823 0 l 257
 628 953 l 257
 432 0 l 257
EndSplineSet
EndChar

StartChar: x
Encoding: 89 120 348
Width: 1229
VWidth: 0
Flags: HW
PickledData: "(dp1
S'com.typemytype.robofont.layerData'
p2
(dp3
s."
LayerCount: 2
Fore
SplineSet
164 1097 m 257
 366 1097 l 257
 627 668 l 257
 888 1097 l 257
 1077 1097 l 257
 740 565 l 257
 1089 0 l 257
 901 0 l 257
 625 443 l 257
 340 0 l 257
 146 0 l 257
 500 560 l 257
 164 1097 l 257
EndSplineSet
EndChar

StartChar: y
Encoding: 90 121 349
Width: 1229
VWidth: 0
Flags: HW
PickledData: "(dp1
S'com.typemytype.robofont.layerData'
p2
(dp3
s."
AnchorPoint: "top" 615 1097 basechar 0
LayerCount: 2
Fore
SplineSet
643 197 m 257
 934 1097 l 257
 1131 1097 l 257
 1131 1097 845 271 753 32 c 256
 745 10 733 -19 724 -43 c 256
 594 -373 494 -410 191 -410 c 257
 170 -263 l 257
 408 -263 462 -281 551 10 c 257
 99 1097 l 257
 290 1097 l 257
 643 197 l 257
EndSplineSet
EndChar

StartChar: yen
Encoding: 101 165 353
Width: 1229
VWidth: 0
Flags: HW
LayerCount: 2
Fore
SplineSet
611 0 m 257
 611 307 l 257
 171 307 l 257
 159 459 l 257
 610 459 l 257
 610 623 l 257
 163 623 l 257
 163 778 l 257
 571 778 l 257
 78 1541 l 257
 305 1541 l 257
 443 1314 581 1095 715 864 c 257
 1127 1541 l 257
 1334 1541 l 257
 830 778 l 257
 1232 778 l 257
 1232 623 l 257
 800 623 l 257
 800 459 l 257
 1236 459 l 257
 1236 307 l 257
 803 307 l 257
 803 0 l 257
 611 0 l 257
EndSplineSet
EndChar

StartChar: z
Encoding: 91 122 354
Width: 1229
VWidth: 0
Flags: HW
PickledData: "(dp1
S'com.typemytype.robofont.layerData'
p2
(dp3
s."
AnchorPoint: "top" 632 1097 basechar 0
LayerCount: 2
Fore
SplineSet
253 1097 m 257
 960 1097 l 257
 960 959 l 257
 426 140 l 257
 996 138 l 257
 996 0 l 257
 234 0 l 257
 234 142 l 257
 758 957 l 257
 253 957 l 257
 253 1097 l 257
EndSplineSet
EndChar

StartChar: zero
Encoding: 17 48 358
Width: 1229
VWidth: 0
Flags: HW
LayerCount: 2
Fore
SplineSet
841 1170 m 257
 487 176 l 257
 523 146 566 130 614 130 c 256
 810 130 909 401 909 746 c 256
 909 911 886 1060 841 1170 c 257
614 -25 m 256
 275 -25 123 337 123 747 c 256
 123 1124 242 1516 614 1516 c 256
 986 1516 1105 1124 1105 747 c 256
 1105 337 953 -25 614 -25 c 256
614 1363 m 256
 417 1363 319 1091 319 746 c 256
 319 576 343 424 391 313 c 257
 749 1310 l 257
 711 1344 666 1363 614 1363 c 256
EndSplineSet
EndChar

StartChar: dotlessj
Encoding: 359 567 359
Width: 1229
VWidth: 0
Flags: HW
AnchorPoint: "top" 717 1094 basechar 0
LayerCount: 2
Fore
SplineSet
460 -220 m 258
 646 -220 671 -176 671 71 c 258
 671 957 l 257
 280 957 l 257
 280 1097 l 257
 853 1097 l 257
 853 127 l 258
 853 -199 836 -360 461 -360 c 258
 198 -360 l 257
 198 -220 l 257
 460 -220 l 258
EndSplineSet
EndChar
